  0
SECTION
  2
HEADER
  9
$ACADVER
  1
AC1024
  9
$ACADMAINTVER
 70
     6
  9
$DWGCODEPAGE
  3
ANSI_1252
  9
$INSBASE
 10
0.0
 20
0.0
 30
0.0
  9
$EXTMIN
 10
1.000000000000000E+20
 20
1.000000000000000E+20
 30
1.000000000000000E+20
  9
$EXTMAX
 10
-1.000000000000000E+20
 20
-1.000000000000000E+20
 30
-1.000000000000000E+20
  9
$LIMMIN
 10
0.0
 20
0.0
  9
$LIMMAX
 10
12.0
 20
9.0
  9
$ORTHOMODE
 70
     0
  9
$REGENMODE
 70
     1
  9
$FILLMODE
 70
     1
  9
$QTEXTMODE
 70
     0
  9
$MIRRTEXT
 70
     1
  9
$LTSCALE
 40
1.0
  9
$ATTMODE
 70
     1
  9
$TEXTSIZE
 40
0.2
  9
$TRACEWID
 40
0.05
  9
$TEXTSTYLE
  7
Standard
  9
$CLAYER
  8
0
  9
$CELTYPE
  6
ByLayer
  9
$CECOLOR
 62
   256
  9
$CELTSCALE
 40
1.0
  9
$DISPSILH
 70
     0
  9
$DIMSCALE
 40
1.0
  9
$DIMASZ
 40
0.18
  9
$DIMEXO
 40
0.0625
  9
$DIMDLI
 40
0.38
  9
$DIMRND
 40
0.0
  9
$DIMDLE
 40
0.0
  9
$DIMEXE
 40
0.18
  9
$DIMTP
 40
0.0
  9
$DIMTM
 40
0.0
  9
$DIMTXT
 40
0.18
  9
$DIMCEN
 40
0.09
  9
$DIMTSZ
 40
0.0
  9
$DIMTOL
 70
     0
  9
$DIMLIM
 70
     0
  9
$DIMTIH
 70
     1
  9
$DIMTOH
 70
     1
  9
$DIMSE1
 70
     0
  9
$DIMSE2
 70
     0
  9
$DIMTAD
 70
     0
  9
$DIMZIN
 70
     0
  9
$DIMBLK
  1

  9
$DIMASO
 70
     1
  9
$DIMSHO
 70
     1
  9
$DIMPOST
  1

  9
$DIMAPOST
  1

  9
$DIMALT
 70
     0
  9
$DIMALTD
 70
     2
  9
$DIMALTF
 40
25.4
  9
$DIMLFAC
 40
1.0
  9
$DIMTOFL
 70
     0
  9
$DIMTVP
 40
0.0
  9
$DIMTIX
 70
     0
  9
$DIMSOXD
 70
     0
  9
$DIMSAH
 70
     0
  9
$DIMBLK1
  1

  9
$DIMBLK2
  1

  9
$DIMSTYLE
  2
Standard
  9
$DIMCLRD
 70
     0
  9
$DIMCLRE
 70
     0
  9
$DIMCLRT
 70
     0
  9
$DIMTFAC
 40
1.0
  9
$DIMGAP
 40
0.09
  9
$DIMJUST
 70
     0
  9
$DIMSD1
 70
     0
  9
$DIMSD2
 70
     0
  9
$DIMTOLJ
 70
     1
  9
$DIMTZIN
 70
     0
  9
$DIMALTZ
 70
     0
  9
$DIMALTTZ
 70
     0
  9
$DIMUPT
 70
     0
  9
$DIMDEC
 70
     4
  9
$DIMTDEC
 70
     4
  9
$DIMALTU
 70
     2
  9
$DIMALTTD
 70
     2
  9
$DIMTXSTY
  7
Standard
  9
$DIMAUNIT
 70
     0
  9
$DIMADEC
 70
     0
  9
$DIMALTRND
 40
0.0
  9
$DIMAZIN
 70
     0
  9
$DIMDSEP
 70
    46
  9
$DIMATFIT
 70
     3
  9
$DIMFRAC
 70
     0
  9
$DIMLDRBLK
  1

  9
$DIMLUNIT
 70
     2
  9
$DIMLWD
 70
    -2
  9
$DIMLWE
 70
    -2
  9
$DIMTMOVE
 70
     0
  9
$DIMFXL
 40
1.0
  9
$DIMFXLON
 70
     0
  9
$DIMJOGANG
 40
0.7853981633974483
  9
$DIMTFILL
 70
     0
  9
$DIMTFILLCLR
 70
     0
  9
$DIMARCSYM
 70
     0
  9
$DIMLTYPE
  6

  9
$DIMLTEX1
  6

  9
$DIMLTEX2
  6

  9
$DIMTXTDIRECTION
 70
     0
  9
$LUNITS
 70
     2
  9
$LUPREC
 70
     4
  9
$SKETCHINC
 40
0.1
  9
$FILLETRAD
 40
0.5
  9
$AUNITS
 70
     0
  9
$AUPREC
 70
     0
  9
$MENU
  1
.
  9
$ELEVATION
 40
0.0
  9
$PELEVATION
 40
0.0
  9
$THICKNESS
 40
0.0
  9
$LIMCHECK
 70
     0
  9
$CHAMFERA
 40
0.5
  9
$CHAMFERB
 40
0.5
  9
$CHAMFERC
 40
1.0
  9
$CHAMFERD
 40
0.0
  9
$SKPOLY
 70
     0
  9
$TDCREATE
 40
2459985.459566991
  9
$TDUCREATE
 40
2459985.417900324
  9
$TDUPDATE
 40
2459985.459567095
  9
$TDUUPDATE
 40
2459985.417900428
  9
$TDINDWG
 40
0.0000000116
  9
$TDUSRTIMER
 40
0.0000000116
  9
$USRTIMER
 70
     1
  9
$ANGBASE
 50
0.0
  9
$ANGDIR
 70
     0
  9
$PDMODE
 70
     0
  9
$PDSIZE
 40
0.0
  9
$PLINEWID
 40
0.0
  9
$SPLFRAME
 70
     0
  9
$SPLINETYPE
 70
     6
  9
$SPLINESEGS
 70
     8
  9
$HANDSEED
  5
62
  9
$SURFTAB1
 70
     6
  9
$SURFTAB2
 70
     6
  9
$SURFTYPE
 70
     6
  9
$SURFU
 70
     6
  9
$SURFV
 70
     6
  9
$UCSBASE
  2

  9
$UCSNAME
  2

  9
$UCSORG
 10
0.0
 20
0.0
 30
0.0
  9
$UCSXDIR
 10
1.0
 20
0.0
 30
0.0
  9
$UCSYDIR
 10
0.0
 20
1.0
 30
0.0
  9
$UCSORTHOREF
  2

  9
$UCSORTHOVIEW
 70
     0
  9
$UCSORGTOP
 10
0.0
 20
0.0
 30
0.0
  9
$UCSORGBOTTOM
 10
0.0
 20
0.0
 30
0.0
  9
$UCSORGLEFT
 10
0.0
 20
0.0
 30
0.0
  9
$UCSORGRIGHT
 10
0.0
 20
0.0
 30
0.0
  9
$UCSORGFRONT
 10
0.0
 20
0.0
 30
0.0
  9
$UCSORGBACK
 10
0.0
 20
0.0
 30
0.0
  9
$PUCSBASE
  2

  9
$PUCSNAME
  2

  9
$PUCSORG
 10
0.0
 20
0.0
 30
0.0
  9
$PUCSXDIR
 10
1.0
 20
0.0
 30
0.0
  9
$PUCSYDIR
 10
0.0
 20
1.0
 30
0.0
  9
$PUCSORTHOREF
  2

  9
$PUCSORTHOVIEW
 70
     0
  9
$PUCSORGTOP
 10
0.0
 20
0.0
 30
0.0
  9
$PUCSORGBOTTOM
 10
0.0
 20
0.0
 30
0.0
  9
$PUCSORGLEFT
 10
0.0
 20
0.0
 30
0.0
  9
$PUCSORGRIGHT
 10
0.0
 20
0.0
 30
0.0
  9
$PUCSORGFRONT
 10
0.0
 20
0.0
 30
0.0
  9
$PUCSORGBACK
 10
0.0
 20
0.0
 30
0.0
  9
$USERI1
 70
     0
  9
$USERI2
 70
     0
  9
$USERI3
 70
     0
  9
$USERI4
 70
     0
  9
$USERI5
 70
     0
  9
$USERR1
 40
0.0
  9
$USERR2
 40
0.0
  9
$USERR3
 40
0.0
  9
$USERR4
 40
0.0
  9
$USERR5
 40
0.0
  9
$WORLDVIEW
 70
     1
  9
$SHADEDGE
 70
     3
  9
$SHADEDIF
 70
    70
  9
$TILEMODE
 70
     1
  9
$MAXACTVP
 70
    64
  9
$PINSBASE
 10
0.0
 20
0.0
 30
0.0
  9
$PLIMCHECK
 70
     0
  9
$PEXTMIN
 10
1.000000000000000E+20
 20
1.000000000000000E+20
 30
1.000000000000000E+20
  9
$PEXTMAX
 10
-1.000000000000000E+20
 20
-1.000000000000000E+20
 30
-1.000000000000000E+20
  9
$PLIMMIN
 10
0.0
 20
0.0
  9
$PLIMMAX
 10
12.0
 20
9.0
  9
$UNITMODE
 70
     0
  9
$VISRETAIN
 70
     1
  9
$PLINEGEN
 70
     0
  9
$PSLTSCALE
 70
     1
  9
$TREEDEPTH
 70
  3020
  9
$CMLSTYLE
  2
Standard
  9
$CMLJUST
 70
     0
  9
$CMLSCALE
 40
1.0
  9
$PROXYGRAPHICS
 70
     1
  9
$MEASUREMENT
 70
     0
  9
$CELWEIGHT
370
    -1
  9
$ENDCAPS
280
     0
  9
$JOINSTYLE
280
     0
  9
$LWDISPLAY
290
     1
  9
$INSUNITS
 70
     1
  9
$HYPERLINKBASE
  1

  9
$STYLESHEET
  1

  9
$XEDIT
290
     1
  9
$CEPSNTYPE
380
     0
  9
$PSTYLEMODE
290
     1
  9
$FINGERPRINTGUID
  2
{9C919CA9-CAA8-40D1-AB4B-94C54A065BC8}
  9
$VERSIONGUID
  2
{FAEB1C32-E019-11D5-929B-00C0DF256EC4}
  9
$EXTNAMES
290
     1
  9
$PSVPSCALE
 40
0.0
  9
$OLESTARTUP
290
     0
  9
$SORTENTS
280
   127
  9
$INDEXCTL
280
     0
  9
$HIDETEXT
280
     1
  9
$XCLIPFRAME
280
     2
  9
$HALOGAP
280
     0
  9
$OBSCOLOR
 70
   257
  9
$OBSLTYPE
280
     0
  9
$INTERSECTIONDISPLAY
280
     0
  9
$INTERSECTIONCOLOR
 70
   257
  9
$DIMASSOC
280
     2
  9
$PROJECTNAME
  1

  9
$CAMERADISPLAY
290
     0
  9
$LENSLENGTH
 40
50.0
  9
$CAMERAHEIGHT
 40
0.0
  9
$STEPSPERSEC
 40
2.0
  9
$STEPSIZE
 40
6.0
  9
$3DDWFPREC
 40
2.0
  9
$PSOLWIDTH
 40
0.25
  9
$PSOLHEIGHT
 40
4.0
  9
$LOFTANG1
 40
1.570796326794897
  9
$LOFTANG2
 40
1.570796326794897
  9
$LOFTMAG1
 40
0.0
  9
$LOFTMAG2
 40
0.0
  9
$LOFTPARAM
 70
     7
  9
$LOFTNORMALS
280
     1
  9
$LATITUDE
 40
37.795
  9
$LONGITUDE
 40
-122.394
  9
$NORTHDIRECTION
 40
0.0
  9
$TIMEZONE
 70
 -8000
  9
$LIGHTGLYPHDISPLAY
280
     1
  9
$TILEMODELIGHTSYNCH
280
     1
  9
$CMATERIAL
347
3C
  9
$SOLIDHIST
280
     1
  9
$SHOWHIST
280
     1
  9
$DWFFRAME
280
     2
  9
$DGNFRAME
280
     2
  9
$REALWORLDSCALE
290
     1
  9
$INTERFERECOLOR
 62
   256
  9
$CSHADOW
280
     0
  9
$SHADOWPLANELOCATION
 40
0.0
  0
ENDSEC
  0
SECTION
  2
CLASSES
  0
CLASS
  1
ACDBDICTIONARYWDFLT
  2
AcDbDictionaryWithDefault
  3
ObjectDBX Classes
 90
        0
 91
        4
280
     0
281
     0
  0
CLASS
  1
VISUALSTYLE
  2
AcDbVisualStyle
  3
ObjectDBX Classes
 90
     4095
 91
        4
280
     0
281
     0
  0
CLASS
  1
MATERIAL
  2
AcDbMaterial
  3
ObjectDBX Classes
 90
     1153
 91
        4
280
     0
281
     0
  0
CLASS
  1
SUN
  2
AcDbSun
  3
SCENEOE
 90
     1024
 91
        4
280
     0
281
     0
  0
ENDSEC
  0
SECTION
  2
TABLES
  0
TABLE
  2
VPORT
  5
8
330
0
100
AcDbSymbolTable
 70
     1
  0
VPORT
  5
29
330
8
100
AcDbSymbolTableRecord
100
AcDbViewportTableRecord
  2
*Active
 70
     0
 10
0.0
 20
0.0
 11
1.0
 21
1.0
 12
0.0
 22
0.0
 13
0.0
 23
0.0
 14
0.5
 24
0.5
 15
0.5
 25
0.5
 16
0.0
 26
0.0
 36
1.0
 17
38.9995833235835
 27
-19.49979166179159
 37
0.0
 40
38.99958332358318
 41
2.000000000000016
 42
50.0
 43
0.0
 44
0.0
 50
0.0
 51
0.0
 71
     0
 72
   100
 73
     1
 74
     3
 75
     0
 76
     0
 77
     0
 78
     0
281
     0
 65
     1
110
0.0
120
0.0
130
0.0
111
1.0
121
0.0
131
0.0
112
0.0
122
1.0
132
0.0
 79
     0
146
0.0
 60
     3
 61
     5
292
     1
282
     1
141
0.0
142
0.0
 63
   250
361
3F
  0
ENDTAB
  0
TABLE
  2
LTYPE
  5
5
330
0
100
AcDbSymbolTable
 70
     1
  0
LTYPE
  5
14
330
5
100
AcDbSymbolTableRecord
100
AcDbLinetypeTableRecord
  2
ByBlock
 70
     0
  3

 72
    65
 73
     0
 40
0.0
  0
LTYPE
  5
15
330
5
100
AcDbSymbolTableRecord
100
AcDbLinetypeTableRecord
  2
ByLayer
 70
     0
  3

 72
    65
 73
     0
 40
0.0
  0
LTYPE
  5
16
330
5
100
AcDbSymbolTableRecord
100
AcDbLinetypeTableRecord
  2
Continuous
 70
     0
  3
Solid line
 72
    65
 73
     0
 40
0.0
  0
ENDTAB
  0
TABLE
  2
LAYER
  5
2
330
0
100
AcDbSymbolTable
 70
     2
  0
LAYER
  5
10
330
2
100
AcDbSymbolTableRecord
100
AcDbLayerTableRecord
  2
0
 70
     0
 62
     7
  6
Continuous
370
    -3
390
F
347
3E
  0
LAYER
  5
40
330
2
100
AcDbSymbolTableRecord
100
AcDbLayerTableRecord
  2
Layer 1
 70
     0
 62
     7
  6
Continuous
370
    -3
390
F
347
3E
  0
ENDTAB
  0
TABLE
  2
STYLE
  5
3
330
0
100
AcDbSymbolTable
 70
     1
  0
STYLE
  5
11
330
3
100
AcDbSymbolTableRecord
100
AcDbTextStyleTableRecord
  2
Standard
 70
     0
 40
0.0
 41
1.0
 50
0.0
 71
     0
 42
0.2
  3
txt
  4

  0
ENDTAB
  0
TABLE
  2
VIEW
  5
6
330
0
100
AcDbSymbolTable
 70
     0
  0
ENDTAB
  0
TABLE
  2
UCS
  5
7
330
0
100
AcDbSymbolTable
 70
     0
  0
ENDTAB
  0
TABLE
  2
APPID
  5
9
330
0
100
AcDbSymbolTable
 70
     1
  0
APPID
  5
12
330
9
100
AcDbSymbolTableRecord
100
AcDbRegAppTableRecord
  2
ACAD
 70
     0
  0
ENDTAB
  0
TABLE
  2
DIMSTYLE
  5
A
330
0
100
AcDbSymbolTable
 70
     1
100
AcDbDimStyleTable
  0
DIMSTYLE
105
27
330
A
100
AcDbSymbolTableRecord
100
AcDbDimStyleTableRecord
  2
Standard
 70
     0
178
     0
340
11
  0
ENDTAB
  0
TABLE
  2
BLOCK_RECORD
  5
1
330
0
100
AcDbSymbolTable
 70
     2
  0
BLOCK_RECORD
  5
1F
330
1
100
AcDbSymbolTableRecord
100
AcDbBlockTableRecord
  2
*Model_Space
340
22
 70
     0
280
     1
281
     0
  0
BLOCK_RECORD
  5
1B
330
1
100
AcDbSymbolTableRecord
100
AcDbBlockTableRecord
  2
*Paper_Space
340
1E
 70
     0
280
     1
281
     0
  0
BLOCK_RECORD
  5
23
330
1
100
AcDbSymbolTableRecord
100
AcDbBlockTableRecord
  2
*Paper_Space0
340
26
 70
     0
280
     1
281
     0
  0
BLOCK_RECORD
  5
41
330
1
100
AcDbSymbolTableRecord
100
AcDbBlockTableRecord
  2
block 2
340
0
102
{BLKREFS
331
42
102
}
 70
     0
280
     1
281
     0
  0
ENDTAB
  0
ENDSEC
  0
SECTION
  2
BLOCKS
  0
BLOCK
  5
20
330
1F
100
AcDbEntity
  8
0
100
AcDbBlockBegin
  2
*Model_Space
 70
     0
 10
0.0
 20
0.0
 30
0.0
  3
*Model_Space
  1

  0
ENDBLK
  5
21
330
1F
100
AcDbEntity
  8
0
100
AcDbBlockEnd
  0
BLOCK
  5
1C
330
1B
100
AcDbEntity
 67
     1
  8
0
100
AcDbBlockBegin
  2
*Paper_Space
 70
     0
 10
0.0
 20
0.0
 30
0.0
  3
*Paper_Space
  1

  0
ENDBLK
  5
1D
330
1B
100
AcDbEntity
 67
     1
  8
0
100
AcDbBlockEnd
  0
BLOCK
  5
24
330
23
100
AcDbEntity
  8
0
100
AcDbBlockBegin
  2
*Paper_Space0
 70
     0
 10
0.0
 20
0.0
 30
0.0
  3
*Paper_Space0
  1

  0
ENDBLK
  5
25
330
23
100
AcDbEntity
  8
0
100
AcDbBlockEnd
  0
BLOCK
  5
43
330
41
100
AcDbEntity
  8
0
100
AcDbBlockBegin
  2
block 2
 70
     0
 10
0.0
 20
0.0
 30
0.0
  3
block 2
  1

  0
SPLINE
  5
45
330
41
100
AcDbEntity
  8
Layer 1
370
     0
100
AcDbSpline
210
0.0
220
0.0
230
1.0
 70
    11
 71
     3
 72
   128
 73
   124
 74
     0
 42
0.0000000001
 43
0.0000000001
 12
1.0
 22
0.0
 32
0.0
 13
1.0
 23
0.0
 33
0.0
 40
0.0
 40
0.0
 40
0.0
 40
0.0
 40
1.0
 40
1.0
 40
1.0
 40
2.0
 40
2.0
 40
2.0
 40
3.0
 40
3.0
 40
3.0
 40
4.0
 40
4.0
 40
4.0
 40
5.0
 40
5.0
 40
5.0
 40
6.0
 40
6.0
 40
6.0
 40
7.0
 40
7.0
 40
7.0
 40
8.0
 40
8.0
 40
8.0
 40
9.0
 40
9.0
 40
9.0
 40
10.0
 40
10.0
 40
10.0
 40
11.0
 40
11.0
 40
11.0
 40
12.0
 40
12.0
 40
12.0
 40
13.0
 40
13.0
 40
13.0
 40
14.0
 40
14.0
 40
14.0
 40
15.0
 40
15.0
 40
15.0
 40
16.0
 40
16.0
 40
16.0
 40
17.0
 40
17.0
 40
17.0
 40
18.0
 40
18.0
 40
18.0
 40
19.0
 40
19.0
 40
19.0
 40
20.0
 40
20.0
 40
20.0
 40
21.0
 40
21.0
 40
21.0
 40
22.0
 40
22.0
 40
22.0
 40
23.0
 40
23.0
 40
23.0
 40
24.0
 40
24.0
 40
24.0
 40
25.0
 40
25.0
 40
25.0
 40
26.0
 40
26.0
 40
26.0
 40
27.0
 40
27.0
 40
27.0
 40
28.0
 40
28.0
 40
28.0
 40
29.0
 40
29.0
 40
29.0
 40
30.0
 40
30.0
 40
30.0
 40
31.0
 40
31.0
 40
31.0
 40
32.0
 40
32.0
 40
32.0
 40
33.0
 40
33.0
 40
33.0
 40
34.0
 40
34.0
 40
34.0
 40
35.0
 40
35.0
 40
35.0
 40
36.0
 40
36.0
 40
36.0
 40
37.0
 40
37.0
 40
37.0
 40
38.0
 40
38.0
 40
38.0
 40
39.0
 40
39.0
 40
39.0
 40
40.0
 40
40.0
 40
40.0
 40
41.0
 40
41.0
 40
41.0
 40
41.0
 10
30.86095887316019
 20
-25.79317007311315
 30
0.0
 10
30.85418583600066
 20
-25.71668796187709
 30
0.0
 10
30.84832244925824
 20
-25.63360595319981
 30
0.0
 10
30.84137399048162
 20
-25.54296153621686
 30
0.0
 10
30.68261592208642
 20
-23.4719109414599
 30
0.0
 10
30.5238578098651
 20
-21.40086035005325
 30
0.0
 10
30.36509967655112
 20
-19.32980976026947
 30
0.0
 10
30.28572060991323
 20
-18.29428446612804
 30
0.0
 10
30.20634153800762
 20
-17.25875917239697
 30
0.0
 10
30.12696246363565
 20
-16.22323387883917
 30
0.0
 10
30.08727292646089
 20
-15.70547123216022
 30
0.0
 10
30.0475833885915
 20
-15.1877085855034
 30
0.0
 10
30.00789016698267
 20
-14.66989790294576
 30
0.0
 10
29.96863478582559
 20
-14.15816657696621
 30
0.0
 10
29.71034343846953
 20
-13.59610322863883
 30
0.0
 10
30.15291779877928
 20
-13.20196412927745
 30
0.0
 10
30.86277013831785
 20
-12.56979790625123
 30
0.0
 10
31.56451681371498
 20
-11.89230834602953
 30
0.0
 10
32.29310259437016
 20
-11.27041702043688
 30
0.0
 10
32.66330862784392
 20
-10.9544241381102
 30
0.0
 10
33.09829160282865
 20
-10.81222725548674
 30
0.0
 10
33.52582424030542
 20
-10.5769892464875
 30
0.0
 10
33.98378603601105
 20
-10.32500843476598
 30
0.0
 10
34.5491122065206
 20
-10.12428375465174
 30
0.0
 10
35.04761287239798
 20
-9.975339938934129
 30
0.0
 10
35.07958532075253
 20
-9.965787096188853
 30
0.0
 10
35.71790117178999
 20
-9.753083315762321
 30
0.0
 10
35.74984847794078
 20
-9.74344647817261
 30
0.0
 10
36.51755300864267
 20
-9.511870022910353
 30
0.0
 10
36.65757980106451
 20
-9.474969446515338
 30
0.0
 10
37.40967809113182
 20
-9.195334661809497
 30
0.0
 10
38.24964380235995
 20
-8.912866433300838
 30
0.0
 10
39.0747072914011
 20
-8.615197410781319
 30
0.0
 10
39.92077191609857
 20
-8.341336493713166
 30
0.0
 10
40.22822329714395
 20
-8.241818183588151
 30
0.0
 10
40.50981301201843
 20
-8.082729006061292
 30
0.0
 10
40.8172643936824
 20
-7.983210701113184
 30
0.0
 10
41.14788131568856
 20
-7.876193983631258
 30
0.0
 10
41.68849884250894
 20
-7.574110771599186
 30
0.0
 10
42.03155094129004
 20
-7.589920286233937
 30
0.0
 10
42.35016044387292
 20
-7.60460336677726
 30
0.0
 10
42.55108431837702
 20
-7.949495548268668
 30
0.0
 10
42.74402395326953
 20
-8.17830227489684
 30
0.0
 10
43.06026497973852
 20
-8.553331874832637
 30
0.0
 10
43.38532323423974
 20
-8.92095023139832
 30
0.0
 10
43.71896446012782
 20
-9.280589475116077
 30
0.0
 10
43.88532399385902
 20
-9.459912088678514
 30
0.0
 10
44.0592898048473
 20
-9.632381994890347
 30
0.0
 10
44.30321559263166
 20
-9.69334252878934
 30
0.0
 10
44.59686920544664
 20
-9.766730755562866
 30
0.0
 10
44.891452122669
 20
-9.729273001594732
 30
0.0
 10
45.20139150594156
 20
-9.736855996894116
 30
0.0
 10
45.56070300842507
 20
-9.745646933365501
 30
0.0
 10
45.92872098649294
 20
-9.708672351387941
 30
0.0
 10
46.27942497796145
 20
-9.806633088574552
 30
0.0
 10
46.59021689361855
 20
-9.89344534593236
 30
0.0
 10
46.86803841836987
 20
-10.10349920634546
 30
0.0
 10
47.10116789676424
 20
-10.31740487604987
 30
0.0
 10
47.7010097379252
 20
-10.86778453718662
 30
0.0
 10
48.34692544200993
 20
-11.33686015497561
 30
0.0
 10
48.95009041964042
 20
-11.8837317245152
 30
0.0
 10
49.2927892565999
 20
-12.19444646722137
 30
0.0
 10
49.48492187279681
 20
-12.92747598158121
 30
0.0
 10
49.54171984395555
 20
-13.38869502533812
 30
0.0
 10
49.8044325571996
 20
-15.52201827528587
 30
0.0
 10
50.06714532263945
 20
-17.65534151878903
 30
0.0
 10
50.32985810973344
 20
-19.78866475964422
 30
0.0
 10
50.46279711017086
 20
-20.86817772256747
 30
0.0
 10
50.59573611621737
 20
-21.94769068480988
 30
0.0
 10
50.72868885586116
 20
-23.02731510408892
 30
0.0
 10
50.77473707304666
 20
-23.40089556649083
 30
0.0
 10
51.0838610404841
 20
-24.10349612116157
 30
0.0
 10
50.79501510312149
 20
-24.42819652665431
 30
0.0
 10
50.59131236549244
 20
-24.65718490047596
 30
0.0
 10
50.01283381473072
 20
-24.79537733665196
 30
0.0
 10
49.73230541394124
 20
-24.92405124014276
 30
0.0
 10
49.35681703719688
 20
-25.096281770173
 30
0.0
 10
48.98121073262288
 20
-25.26825519892381
 30
0.0
 10
48.6054868511529
 20
-25.43997136672829
 30
0.0
 10
48.00837300726906
 20
-25.7128688483316
 30
0.0
 10
47.40708912377952
 20
-25.97651966538569
 30
0.0
 10
46.80478730219999
 20
-26.23772824104424
 30
0.0
 10
46.50376051400122
 20
-26.36827083646496
 30
0.0
 10
46.20247584975166
 20
-26.49821735631451
 30
0.0
 10
45.90129712032
 20
-26.6284087266452
 30
0.0
 10
45.60380618279682
 20
-26.75700596489446
 30
0.0
 10
45.29926080823
 20
-26.87695669118514
 30
0.0
 10
45.00679784753171
 20
-27.01527424605739
 30
0.0
 10
44.42672861608931
 20
-27.28961243082946
 30
0.0
 10
43.83201844258105
 20
-27.53331740145708
 30
0.0
 10
43.22661986821679
 20
-27.74595200742308
 30
0.0
 10
43.15013430022628
 20
-27.77281747035881
 30
0.0
 10
43.08929526951917
 20
-27.80394329075921
 30
0.0
 10
43.02719199056685
 20
-27.85744963436129
 30
0.0
 10
42.95115618609368
 20
-27.92295982878857
 30
0.0
 10
42.88692398870111
 20
-28.00082266328644
 30
0.0
 10
42.82343762960149
 20
-28.0781568606182
 30
0.0
 10
42.26775383171062
 20
-28.75504882205328
 30
0.0
 10
41.60385809705045
 20
-29.41866138759962
 30
0.0
 10
41.20330472721449
 20
-30.20471041640077
 30
0.0
 10
41.18442088754863
 20
-30.24176612631103
 30
0.0
 10
41.14828100419055
 20
-30.2696784224291
 30
0.0
 10
41.12267850174802
 20
-30.30373308847032
 30
0.0
 10
40.93703741498899
 20
-30.55065993339597
 30
0.0
 10
40.8314109594945
 20
-30.82979383001774
 30
0.0
 10
40.47850308030537
 20
-30.80128756486217
 30
0.0
 10
39.99360488708461
 20
-30.76211909851951
 30
0.0
 10
39.5087067233788
 20
-30.72295084071428
 30
0.0
 10
39.02380855962775
 20
-30.68378258288916
 30
0.0
 10
38.22280217316866
 20
-30.619080285981
 30
0.0
 10
37.42178332315083
 20
-30.55437693022771
 30
0.0
 10
36.62137885964274
 20
-30.48261124733939
 30
0.0
 10
35.89561116178882
 20
-30.41753762917794
 30
0.0
 10
35.63582574980594
 20
-29.8350770735404
 30
0.0
 10
35.23274675092777
 20
-29.29791936707869
 30
0.0
 10
34.73163445874189
 20
-28.63011914585509
 30
0.0
 10
34.25050596559102
 20
-27.61764678281459
 30
0.0
 10
33.4168795667961
 20
-27.35197215010156
 30
0.0
 10
32.7531559840051
 20
-27.14044543521893
 30
0.0
 10
32.09827624218256
 20
-26.90117053712663
 30
0.0
 10
31.45452445883355
 20
-26.63498213018117
 30
0.0
 10
31.03964087712133
 20
-26.46342967392801
 30
0.0
 10
30.89959582969943
 20
-26.22946365489813
 30
0.0
 10
30.86095887316019
 20
-25.79317007311315
 30
0.0
  0
SPLINE
  5
46
330
41
100
AcDbEntity
  8
Layer 1
370
     0
100
AcDbSpline
210
0.0
220
0.0
230
1.0
 70
     8
 71
     3
 72
    53
 73
    49
 74
     0
 42
0.0000000001
 43
0.0000000001
 12
1.0
 22
0.0
 32
0.0
 13
1.0
 23
0.0
 33
0.0
 40
0.0
 40
0.0
 40
0.0
 40
0.0
 40
1.0
 40
1.0
 40
1.0
 40
2.0
 40
2.0
 40
2.0
 40
3.0
 40
3.0
 40
3.0
 40
4.0
 40
4.0
 40
4.0
 40
5.0
 40
5.0
 40
5.0
 40
6.0
 40
6.0
 40
6.0
 40
7.0
 40
7.0
 40
7.0
 40
8.0
 40
8.0
 40
8.0
 40
9.0
 40
9.0
 40
9.0
 40
10.0
 40
10.0
 40
10.0
 40
11.0
 40
11.0
 40
11.0
 40
12.0
 40
12.0
 40
12.0
 40
13.0
 40
13.0
 40
13.0
 40
14.0
 40
14.0
 40
14.0
 40
15.0
 40
15.0
 40
15.0
 40
16.0
 40
16.0
 40
16.0
 40
16.0
 10
42.14216570010235
 20
-18.21331877136445
 30
0.0
 10
42.21093977907664
 20
-18.05688440403343
 30
0.0
 10
42.34978918969963
 20
-17.87183562752019
 30
0.0
 10
42.29612598665542
 20
-17.69372221131691
 30
0.0
 10
42.24922075777646
 20
-17.53803917190084
 30
0.0
 10
42.0667764102214
 20
-17.43883887263075
 30
0.0
 10
41.93372996916602
 20
-17.36898245517418
 30
0.0
 10
38.56705323365255
 20
-15.60130022054057
 30
0.0
 10
34.96253371002221
 20
-14.08534420598201
 30
0.0
 10
31.16504561819864
 20
-13.88967689591256
 30
0.0
 10
31.08795052779157
 20
-13.88570453507546
 30
0.0
 10
31.00334147277521
 20
-13.88455425605445
 30
0.0
 10
30.94285375268571
 20
-13.93251963829618
 30
0.0
 10
30.85994927594458
 20
-13.99826112562151
 30
0.0
 10
30.86085708696925
 20
-14.12208771508248
 30
0.0
 10
30.8692449514441
 20
-14.22756170223772
 30
0.0
 10
31.09917533588425
 20
-17.11881695604296
 30
0.0
 10
31.32910558756874
 20
-20.0100721959413
 30
0.0
 10
31.55903583925515
 20
-22.90132743579311
 30
0.0
 10
31.56977343111964
 20
-23.03634715532952
 30
0.0
 10
31.58463588711575
 20
-23.18156479088386
 30
0.0
 10
31.67394240002548
 20
-23.28339766730947
 30
0.0
 10
31.75481331873147
 20
-23.37561172106015
 30
0.0
 10
31.87999669010201
 20
-23.41267535082059
 30
0.0
 10
31.99822713927132
 20
-23.4453107425837
 30
0.0
 10
34.16432508321935
 20
-24.0432229630595
 30
0.0
 10
36.34603011976492
 20
-24.58459303476456
 30
0.0
 10
38.54037170290432
 20
-25.06868382483435
 30
0.0
 10
38.73855577381227
 20
-25.11240495864538
 30
0.0
 10
38.95899953365956
 20
-25.15252293022619
 30
0.0
 10
39.13385131626804
 20
-25.04949207425538
 30
0.0
 10
39.28334780908213
 20
-24.96140164918374
 30
0.0
 10
39.35989860168947
 20
-24.79085162546443
 30
0.0
 10
39.42737964222538
 20
-24.63099075452865
 30
0.0
 10
39.92774755141122
 20
-23.30796771013146
 30
0.0
 10
40.559077628074
 20
-22.03396008581202
 30
0.0
 10
41.0739860230326
 20
-20.71633892749221
 30
0.0
 10
41.15438894542721
 20
-20.51058662468655
 30
0.0
 10
41.2205856661375
 20
-20.29903151223109
 30
0.0
 10
41.30679852380054
 20
-20.09588634031485
 30
0.0
 10
41.37439404510195
 20
-19.93660761571817
 30
0.0
 10
41.46986949331475
 20
-19.78935149444092
 30
0.0
 10
41.54171966114547
 20
-19.63163577557901
 30
0.0
 10
41.63120578755523
 20
-19.43520969163081
 30
0.0
 10
41.70927197218252
 20
-19.23357847592585
 30
0.0
 10
41.79200395741538
 20
-19.03408414623672
 30
0.0
 10
41.83027975242672
 20
-18.94179091639712
 30
0.0
 10
41.85028945588844
 20
-18.83532538488599
 30
0.0
 10
41.90978595667406
 20
-18.75990356009338
 30
0.0
  0
POLYLINE
  5
47
330
41
100
AcDbEntity
  8
Layer 1
370
     0
100
AcDb2dPolyline
 66
     1
 10
0.0
 20
0.0
 30
0.0
  0
VERTEX
  5
48
330
47
100
AcDbEntity
  8
Layer 1
370
     0
100
AcDbVertex
100
AcDb2dVertex
 10
42.65012582042725
 20
-12.61656435734402
 30
0.0
  0
VERTEX
  5
5B
330
47
100
AcDbEntity
  8
0
100
AcDbVertex
100
AcDb2dVertex
 10
42.65012582042725
 20
-12.61656435734402
 30
0.0
  0
SEQEND
  5
49
330
47
100
AcDbEntity
  8
Layer 1
370
     0
  0
POLYLINE
  5
4A
330
41
100
AcDbEntity
  8
Layer 1
370
     0
100
AcDb2dPolyline
 66
     1
 10
0.0
 20
0.0
 30
0.0
  0
VERTEX
  5
4B
330
4A
100
AcDbEntity
  8
Layer 1
370
     0
100
AcDbVertex
100
AcDb2dVertex
 10
42.5898552932489
 20
-12.41788027568004
 30
0.0
  0
VERTEX
  5
5C
330
4A
100
AcDbEntity
  8
0
100
AcDbVertex
100
AcDb2dVertex
 10
42.5898552932489
 20
-12.41788027568004
 30
0.0
  0
SEQEND
  5
4C
330
4A
100
AcDbEntity
  8
Layer 1
370
     0
  0
SPLINE
  5
4D
330
41
100
AcDbEntity
  8
Layer 1
370
     0
100
AcDbSpline
210
0.0
220
0.0
230
1.0
 70
     8
 71
     3
 72
    41
 73
    37
 74
     0
 42
0.0000000001
 43
0.0000000001
 12
1.0
 22
0.0
 32
0.0
 13
1.0
 23
0.0
 33
0.0
 40
0.0
 40
0.0
 40
0.0
 40
0.0
 40
1.0
 40
1.0
 40
1.0
 40
2.0
 40
2.0
 40
2.0
 40
3.0
 40
3.0
 40
3.0
 40
4.0
 40
4.0
 40
4.0
 40
5.0
 40
5.0
 40
5.0
 40
6.0
 40
6.0
 40
6.0
 40
7.0
 40
7.0
 40
7.0
 40
8.0
 40
8.0
 40
8.0
 40
9.0
 40
9.0
 40
9.0
 40
10.0
 40
10.0
 40
10.0
 40
11.0
 40
11.0
 40
11.0
 40
12.0
 40
12.0
 40
12.0
 40
12.0
 10
43.13051161799019
 20
-16.74255887918304
 30
0.0
 10
43.04927213644321
 20
-17.00307240291433
 30
0.0
 10
43.1249756558398
 20
-17.29223313137678
 30
0.0
 10
43.26926090869615
 20
-17.52385534111849
 30
0.0
 10
43.41354616157625
 20
-17.75547755083581
 30
0.0
 10
43.62030338603682
 20
-17.94028840850928
 30
0.0
 10
43.82415689803515
 20
-18.12170159787747
 30
0.0
 10
45.73209829463067
 20
-19.8196155031428
 30
0.0
 10
47.64003967718902
 20
-21.51752941946139
 30
0.0
 10
49.54798105979549
 20
-23.21544333578191
 30
0.0
 10
49.64913471721467
 20
-23.3054619308035
 30
0.0
 10
49.81692716912328
 20
-23.39246255337903
 30
0.0
 10
49.90147433852032
 20
-23.28669298392589
 30
0.0
 10
49.94305038461604
 20
-23.23468086711406
 30
0.0
 10
49.93692406687972
 20
-23.16052551852808
 30
0.0
 10
49.92868247253747
 20
-23.09445048365518
 30
0.0
 10
49.60025360437049
 20
-20.46134713737285
 30
0.0
 10
49.27182475066419
 20
-17.82824381410344
 30
0.0
 10
48.94339263956266
 20
-15.19511437494086
 30
0.0
 10
48.85568906795342
 20
-14.49197082708177
 30
0.0
 10
48.91337097314636
 20
-13.77682479258996
 30
0.0
 10
48.5880659841029
 20
-13.12682401160547
 30
0.0
 10
48.27840609505954
 20
-12.50808413206473
 30
0.0
 10
47.76777077670987
 20
-12.00081457042496
 30
0.0
 10
47.18823531040141
 20
-11.63125711513684
 30
0.0
 10
46.44721944239097
 20
-11.15872703820209
 30
0.0
 10
45.59333605022405
 20
-10.89331468126975
 30
0.0
 10
44.7363049249025
 20
-10.69867104439523
 30
0.0
 10
44.18168362936539
 20
-10.57270872326731
 30
0.0
 10
43.58214216422002
 20
-10.4535016482078
 30
0.0
 10
43.19130781131688
 20
-10.04032687594689
 30
0.0
 10
42.8628466636829
 20
-9.693090613639102
 30
0.0
 10
42.43203750278404
 20
-9.056895310004748
 30
0.0
 10
42.3371694787773
 20
-9.83378070348974
 30
0.0
 10
42.27863652129469
 20
-10.31311396885069
 30
0.0
 10
42.41588950112785
 20
-10.82721935697727
 30
0.0
 10
42.46587854135119
 20
-11.35060457048885
 30
0.0
  0
POLYLINE
  5
4E
330
41
100
AcDbEntity
  8
Layer 1
370
     0
100
AcDb2dPolyline
 66
     1
 10
0.0
 20
0.0
 30
0.0
  0
VERTEX
  5
4F
330
4E
100
AcDbEntity
  8
Layer 1
370
     0
100
AcDbVertex
100
AcDb2dVertex
 10
43.03618359780272
 20
-16.37055380962325
 30
0.0
  0
VERTEX
  5
5D
330
4E
100
AcDbEntity
  8
0
100
AcDbVertex
100
AcDb2dVertex
 10
43.03618359780272
 20
-16.37055380962325
 30
0.0
  0
SEQEND
  5
50
330
4E
100
AcDbEntity
  8
Layer 1
370
     0
  0
POLYLINE
  5
51
330
41
100
AcDbEntity
  8
Layer 1
370
     0
100
AcDb2dPolyline
 66
     1
 10
0.0
 20
0.0
 30
0.0
  0
VERTEX
  5
52
330
51
100
AcDbEntity
  8
Layer 1
370
     0
100
AcDbVertex
100
AcDb2dVertex
 10
42.81910935051955
 20
-14.30052887485034
 30
0.0
  0
VERTEX
  5
5E
330
51
100
AcDbEntity
  8
0
100
AcDbVertex
100
AcDb2dVertex
 10
42.81910935051955
 20
-14.30052887485034
 30
0.0
  0
SEQEND
  5
53
330
51
100
AcDbEntity
  8
Layer 1
370
     0
  0
SPLINE
  5
54
330
41
100
AcDbEntity
  8
Layer 1
370
     0
100
AcDbSpline
210
0.0
220
0.0
230
1.0
 70
    11
 71
     3
 72
    44
 73
    40
 74
     0
 42
0.0000000001
 43
0.0000000001
 12
1.0
 22
0.0
 32
0.0
 13
1.0
 23
0.0
 33
0.0
 40
0.0
 40
0.0
 40
0.0
 40
0.0
 40
1.0
 40
1.0
 40
1.0
 40
2.0
 40
2.0
 40
2.0
 40
3.0
 40
3.0
 40
3.0
 40
4.0
 40
4.0
 40
4.0
 40
5.0
 40
5.0
 40
5.0
 40
6.0
 40
6.0
 40
6.0
 40
7.0
 40
7.0
 40
7.0
 40
8.0
 40
8.0
 40
8.0
 40
9.0
 40
9.0
 40
9.0
 40
10.0
 40
10.0
 40
10.0
 40
11.0
 40
11.0
 40
11.0
 40
12.0
 40
12.0
 40
12.0
 40
13.0
 40
13.0
 40
13.0
 40
13.0
 10
49.14469239735811
 20
-24.49061486444576
 30
0.0
 10
49.59534556565276
 20
-24.25510595822362
 30
0.0
 10
49.73286438009161
 20
-24.04571384190733
 30
0.0
 10
49.32445871761166
 20
-23.67320759410065
 30
0.0
 10
48.18683961503947
 20
-22.63558832742002
 30
0.0
 10
47.04922064758214
 20
-21.59796894531315
 30
0.0
 10
45.91160168012097
 20
-20.5603495631851
 30
0.0
 10
45.18991384624959
 20
-19.90209991581875
 30
0.0
 10
44.46821412986704
 20
-19.24386329338487
 30
0.0
 10
43.74653817727604
 20
-18.58560061989508
 30
0.0
 10
43.29514583340402
 20
-18.17387187926802
 30
0.0
 10
42.77612178026073
 20
-17.41686520826233
 30
0.0
 10
42.43292095861064
 20
-18.30977523052715
 30
0.0
 10
41.92078886625151
 20
-19.64219971846418
 30
0.0
 10
41.40865650062612
 20
-20.97462408375551
 30
0.0
 10
40.89652413500009
 20
-22.30704844904813
 30
0.0
 10
40.64883769657437
 20
-22.95145889417828
 30
0.0
 10
40.40115125808126
 20
-23.59586933930843
 30
0.0
 10
40.15346481952079
 20
-24.2402797843943
 30
0.0
 10
39.88324288740468
 20
-24.94332124514892
 30
0.0
 10
39.52881018875919
 20
-25.48394762087263
 30
0.0
 10
39.82521972436465
 20
-26.22828523489087
 30
0.0
 10
40.014023038151
 20
-26.70240943507245
 30
0.0
 10
40.20784839768626
 20
-27.17453381002769
 30
0.0
 10
40.40666791585765
 20
-27.64454579635124
 30
0.0
 10
40.50553276497203
 20
-27.87826361500384
 30
0.0
 10
40.59652801666805
 20
-28.119288528213
 30
0.0
 10
40.70825830028033
 20
-28.34715978394668
 30
0.0
 10
41.06546522830285
 20
-29.07567481659165
 30
0.0
 10
41.54468580781136
 20
-28.35764191308683
 30
0.0
 10
41.83836767552253
 20
-27.98299957259074
 30
0.0
 10
42.32770319680471
 20
-27.3587657911071
 30
0.0
 10
43.08444592375018
 20
-27.01643328877244
 30
0.0
 10
43.81267300050617
 20
-26.70210690191109
 30
0.0
 10
45.1456931611002
 20
-26.12673225709575
 30
0.0
 10
46.48568775162914
 20
-25.56768028873121
 30
0.0
 10
47.8256423849026
 20
-25.00864526454915
 30
0.0
 10
48.00637292940837
 20
-24.93324367209251
 30
0.0
 10
48.67715122768555
 20
-24.73487942798981
 30
0.0
 10
49.14469239735811
 20
-24.49061486444576
 30
0.0
  0
POLYLINE
  5
55
330
41
100
AcDbEntity
  8
Layer 1
370
     0
100
AcDb2dPolyline
 66
     1
 10
0.0
 20
0.0
 30
0.0
  0
VERTEX
  5
56
330
55
100
AcDbEntity
  8
Layer 1
370
     0
100
AcDbVertex
100
AcDb2dVertex
 10
42.06501468484272
 20
-12.58712600141027
 30
0.0
  0
VERTEX
  5
5F
330
55
100
AcDbEntity
  8
0
100
AcDbVertex
100
AcDb2dVertex
 10
42.06501468484272
 20
-12.58712600141027
 30
0.0
  0
SEQEND
  5
57
330
55
100
AcDbEntity
  8
Layer 1
370
     0
  0
SPLINE
  5
58
330
41
100
AcDbEntity
  8
Layer 1
370
     0
100
AcDbSpline
210
0.0
220
0.0
230
1.0
 70
    11
 71
     3
 72
    53
 73
    49
 74
     0
 42
0.0000000001
 43
0.0000000001
 12
1.0
 22
0.0
 32
0.0
 13
1.0
 23
0.0
 33
0.0
 40
0.0
 40
0.0
 40
0.0
 40
0.0
 40
1.0
 40
1.0
 40
1.0
 40
2.0
 40
2.0
 40
2.0
 40
3.0
 40
3.0
 40
3.0
 40
4.0
 40
4.0
 40
4.0
 40
5.0
 40
5.0
 40
5.0
 40
6.0
 40
6.0
 40
6.0
 40
7.0
 40
7.0
 40
7.0
 40
8.0
 40
8.0
 40
8.0
 40
9.0
 40
9.0
 40
9.0
 40
10.0
 40
10.0
 40
10.0
 40
11.0
 40
11.0
 40
11.0
 40
12.0
 40
12.0
 40
12.0
 40
13.0
 40
13.0
 40
13.0
 40
14.0
 40
14.0
 40
14.0
 40
15.0
 40
15.0
 40
15.0
 40
16.0
 40
16.0
 40
16.0
 40
16.0
 10
42.03441112728974
 20
-12.07581365534665
 30
0.0
 10
41.99387459065368
 20
-11.72045241622143
 30
0.0
 10
41.9968084285019
 20
-11.31866327556611
 30
0.0
 10
41.96942065443538
 20
-11.00015787639657
 30
0.0
 10
41.92080973519494
 20
-10.43484423320946
 30
0.0
 10
41.86713789667778
 20
-9.879244065366425
 30
0.0
 10
41.86904628032426
 20
-9.313026789865106
 30
0.0
 10
41.86977762934678
 20
-9.095567234367723
 30
0.0
 10
41.79623951758985
 20
-8.741687081332014
 30
0.0
 10
41.53573664503077
 20
-8.697548359580852
 30
0.0
 10
41.26138901373976
 20
-8.651063828910099
 30
0.0
 10
40.81734203993867
 20
-8.905634688779347
 30
0.0
 10
40.55877326889578
 20
-8.992249746502125
 30
0.0
 10
39.43931860259273
 20
-9.36724333496065
 30
0.0
 10
38.31124699061209
 20
-9.572062183774563
 30
0.0
 10
37.18791522166079
 20
-9.935276502489813
 30
0.0
 10
35.96918614535919
 20
-10.32933626242998
 30
0.0
 10
34.69162057414339
 20
-10.56608408459985
 30
0.0
 10
33.5501789791838
 20
-11.36899988745264
 30
0.0
 10
32.86764720810547
 20
-11.849108153506
 30
0.0
 10
32.13609591053532
 20
-12.27699691505931
 30
0.0
 10
31.51848042834481
 20
-12.84312486808949
 30
0.0
 10
31.40787366879967
 20
-12.94451087588567
 30
0.0
 10
31.29137103859948
 20
-13.07400887810385
 30
0.0
 10
31.31254738615506
 20
-13.2225503932354
 30
0.0
 10
31.33345068212952
 20
-13.36917537135119
 30
0.0
 10
31.47978499271298
 20
-13.46192070952935
 30
0.0
 10
31.61786010435782
 20
-13.51550250006692
 30
0.0
 10
32.00268161719455
 20
-13.66483721128093
 30
0.0
 10
32.4259508767668
 20
-13.66727128821126
 30
0.0
 10
32.8382395541891
 20
-13.68742972023001
 30
0.0
 10
34.17674772916462
 20
-13.75287495148017
 30
0.0
 10
35.50485121692132
 20
-14.02695273208755
 30
0.0
 10
36.75991693015178
 20
-14.49673767127753
 30
0.0
 10
38.44632730575767
 20
-15.12797967810164
 30
0.0
 10
39.98707220094538
 20
-16.10375113567425
 30
0.0
 10
41.67289888562365
 20
-16.73655032798786
 30
0.0
 10
41.83542738910462
 20
-16.79755772922613
 30
0.0
 10
42.01445788699003
 20
-16.8557270182491
 30
0.0
 10
42.17903993134983
 20
-16.80050005443323
 30
0.0
 10
42.52845537622704
 20
-16.683250604618
 30
0.0
 10
42.36447825462199
 20
-15.98373550644339
 30
0.0
 10
42.34619089485673
 20
-15.71635414830384
 30
0.0
 10
42.31160278239551
 20
-15.21063781706593
 30
0.0
 10
42.24895893957082
 20
-14.70733125042386
 30
0.0
 10
42.21237246926031
 20
-14.20177751974576
 30
0.0
 10
42.16097234531428
 20
-13.49152796027168
 30
0.0
 10
42.08314954246789
 20
-12.78581400699393
 30
0.0
 10
42.03441112728974
 20
-12.07581365534665
 30
0.0
  0
SPLINE
  5
59
330
41
100
AcDbEntity
  8
Layer 1
370
     0
100
AcDbSpline
210
0.0
220
0.0
230
1.0
 70
    11
 71
     3
 72
    71
 73
    67
 74
     0
 42
0.0000000001
 43
0.0000000001
 12
1.0
 22
0.0
 32
0.0
 13
1.0
 23
0.0
 33
0.0
 40
0.0
 40
0.0
 40
0.0
 40
0.0
 40
1.0
 40
1.0
 40
1.0
 40
2.0
 40
2.0
 40
2.0
 40
3.0
 40
3.0
 40
3.0
 40
4.0
 40
4.0
 40
4.0
 40
5.0
 40
5.0
 40
5.0
 40
6.0
 40
6.0
 40
6.0
 40
7.0
 40
7.0
 40
7.0
 40
8.0
 40
8.0
 40
8.0
 40
9.0
 40
9.0
 40
9.0
 40
10.0
 40
10.0
 40
10.0
 40
11.0
 40
11.0
 40
11.0
 40
12.0
 40
12.0
 40
12.0
 40
13.0
 40
13.0
 40
13.0
 40
14.0
 40
14.0
 40
14.0
 40
15.0
 40
15.0
 40
15.0
 40
16.0
 40
16.0
 40
16.0
 40
17.0
 40
17.0
 40
17.0
 40
18.0
 40
18.0
 40
18.0
 40
19.0
 40
19.0
 40
19.0
 40
20.0
 40
20.0
 40
20.0
 40
21.0
 40
21.0
 40
21.0
 40
22.0
 40
22.0
 40
22.0
 40
22.0
 10
40.05433855439077
 20
-28.24849935501475
 30
0.0
 10
39.82687394689211
 20
-27.64551921976282
 30
0.0
 10
39.59448798301236
 20
-27.05719947902604
 30
0.0
 10
39.32419533862419
 20
-26.47309996765316
 30
0.0
 10
39.2770852556462
 20
-26.37129558226062
 30
0.0
 10
39.22997517280297
 20
-26.26949119731535
 30
0.0
 10
39.18283579884282
 20
-26.16762351042954
 30
0.0
 10
39.08885996155211
 20
-25.96451512816648
 30
0.0
 10
39.03795723218143
 20
-25.6906573523441
 30
0.0
 10
38.84652193088301
 20
-25.55220220960458
 30
0.0
 10
38.74086452462677
 20
-25.47578573279907
 30
0.0
 10
38.72788558041157
 20
-25.4427507453243
 30
0.0
 10
38.60793975217565
 20
-25.40959469202816
 30
0.0
 10
38.45176136119674
 20
-25.36642304418952
 30
0.0
 10
38.20101592952425
 20
-25.30283274212955
 30
0.0
 10
38.04496701551869
 20
-25.25919501767322
 30
0.0
 10
37.22084621687959
 20
-25.02873678881329
 30
0.0
 10
36.28848465541699
 20
-24.81169901167301
 30
0.0
 10
35.46375470325676
 20
-24.5822623779337
 30
0.0
 10
34.63018885006342
 20
-24.35036763120923
 30
0.0
 10
33.87896249133726
 20
-24.18728817373071
 30
0.0
 10
33.04539663807975
 20
-23.95539342698378
 30
0.0
 10
32.74114753173256
 20
-23.87075252047166
 30
0.0
 10
32.38881329032031
 20
-23.78655368635004
 30
0.0
 10
32.08456418392917
 20
-23.7019127798392
 30
0.0
 10
31.9521045943726
 20
-23.66506304220876
 30
0.0
 10
31.89331012520602
 20
-23.64098825149042
 30
0.0
 10
31.75599034726314
 20
-23.67234418540764
 30
0.0
 10
31.62520263231484
 20
-23.70220857208819
 30
0.0
 10
31.60592102963169
 20
-23.8704833710515
 30
0.0
 10
31.60816563153062
 20
-23.99554805234378
 30
0.0
 10
31.61390346666512
 20
-24.3152315050161
 30
0.0
 10
31.61964125820613
 20
-24.63491495850916
 30
0.0
 10
31.62537904270706
 20
-24.95459841211772
 30
0.0
 10
31.62940776178677
 20
-25.17906045253864
 30
0.0
 10
31.65996251602688
 20
-25.38073230430082
 30
0.0
 10
31.812780002302
 20
-25.55578884590726
 30
0.0
 10
32.07186884799602
 20
-25.85258208873948
 30
0.0
 10
32.50069337534528
 20
-25.93669629111593
 30
0.0
 10
32.85535110053374
 20
-26.06308298504953
 30
0.0
 10
32.89179734644834
 20
-26.07607105832394
 30
0.0
 10
32.92811293568528
 20
-26.08941691420059
 30
0.0
 10
32.96412234596028
 20
-26.10357650536996
 30
0.0
 10
33.39872660596768
 20
-26.27447102039365
 30
0.0
 10
33.83842274807302
 20
-26.44810274332035
 30
0.0
 10
34.21751338753988
 20
-26.72082281082429
 30
0.0
 10
34.51551930129949
 20
-26.93520991253726
 30
0.0
 10
34.76824208795365
 20
-27.20532609034412
 30
0.0
 10
35.01886373993632
 20
-27.47357641641181
 30
0.0
 10
35.41417169148662
 20
-27.89669025288256
 30
0.0
 10
35.80955396443549
 20
-28.31973479124155
 30
0.0
 10
36.20482286764119
 20
-28.74295565623691
 30
0.0
 10
36.87288753733607
 20
-29.45825622876682
 30
0.0
 10
37.9762932615446
 20
-29.33002435823668
 30
0.0
 10
38.89773003198326
 20
-29.42603056374494
 30
0.0
 10
39.30211518138206
 20
-29.46816420357262
 30
0.0
 10
39.70657375565272
 20
-29.51030442957593
 30
0.0
 10
40.11204394235087
 20
-29.54024610918812
 30
0.0
 10
40.86252290273158
 20
-29.59566473506123
 30
0.0
 10
40.41143536544703
 20
-28.89731285969499
 30
0.0
 10
40.18786366649389
 20
-28.54202013674589
 30
0.0
 10
40.1311270475123
 20
-28.45185627541018
 30
0.0
 10
40.09315332718055
 20
-28.35140902912384
 30
0.0
 10
40.05555850012766
 20
-28.25173354341596
 30
0.0
 10
40.0551518671837
 20
-28.25065543371335
 30
0.0
 10
40.05474521864003
 20
-28.24957737094332
 30
0.0
 10
40.05433855439077
 20
-28.24849935501475
 30
0.0
  0
HATCH
  5
5A
330
41
100
AcDbEntity
  8
Layer 1
 62
     7
420
 16777215
100
AcDbHatch
 10
0.0
 20
0.0
 30
0.0
210
0.0
220
0.0
230
1.0
  2
SOLID
 70
     1
 71
     0
 91
        6
 92
        1
 93
        1
 72
     4
 94
        3
 73
     0
 74
     1
 95
      128
 96
      124
 40
0.0
 40
0.0
 40
0.0
 40
0.0
 40
1.0
 40
1.0
 40
1.0
 40
2.0
 40
2.0
 40
2.0
 40
3.0
 40
3.0
 40
3.0
 40
4.0
 40
4.0
 40
4.0
 40
5.0
 40
5.0
 40
5.0
 40
6.0
 40
6.0
 40
6.0
 40
7.0
 40
7.0
 40
7.0
 40
8.0
 40
8.0
 40
8.0
 40
9.0
 40
9.0
 40
9.0
 40
10.0
 40
10.0
 40
10.0
 40
11.0
 40
11.0
 40
11.0
 40
12.0
 40
12.0
 40
12.0
 40
13.0
 40
13.0
 40
13.0
 40
14.0
 40
14.0
 40
14.0
 40
15.0
 40
15.0
 40
15.0
 40
16.0
 40
16.0
 40
16.0
 40
17.0
 40
17.0
 40
17.0
 40
18.0
 40
18.0
 40
18.0
 40
19.0
 40
19.0
 40
19.0
 40
20.0
 40
20.0
 40
20.0
 40
21.0
 40
21.0
 40
21.0
 40
22.0
 40
22.0
 40
22.0
 40
23.0
 40
23.0
 40
23.0
 40
24.0
 40
24.0
 40
24.0
 40
25.0
 40
25.0
 40
25.0
 40
26.0
 40
26.0
 40
26.0
 40
27.0
 40
27.0
 40
27.0
 40
28.0
 40
28.0
 40
28.0
 40
29.0
 40
29.0
 40
29.0
 40
30.0
 40
30.0
 40
30.0
 40
31.0
 40
31.0
 40
31.0
 40
32.0
 40
32.0
 40
32.0
 40
33.0
 40
33.0
 40
33.0
 40
34.0
 40
34.0
 40
34.0
 40
35.0
 40
35.0
 40
35.0
 40
36.0
 40
36.0
 40
36.0
 40
37.0
 40
37.0
 40
37.0
 40
38.0
 40
38.0
 40
38.0
 40
39.0
 40
39.0
 40
39.0
 40
40.0
 40
40.0
 40
40.0
 40
41.0
 40
41.0
 40
41.0
 40
41.0
 10
30.86095887316019
 20
-25.79317007311315
 10
30.85418583600066
 20
-25.71668796187709
 10
30.84832244925824
 20
-25.63360595319981
 10
30.84137399048162
 20
-25.54296153621686
 10
30.68261592208642
 20
-23.4719109414599
 10
30.5238578098651
 20
-21.40086035005325
 10
30.36509967655112
 20
-19.32980976026947
 10
30.28572060991323
 20
-18.29428446612804
 10
30.20634153800762
 20
-17.25875917239697
 10
30.12696246363565
 20
-16.22323387883917
 10
30.08727292646089
 20
-15.70547123216022
 10
30.0475833885915
 20
-15.1877085855034
 10
30.00789016698267
 20
-14.66989790294576
 10
29.96863478582559
 20
-14.15816657696621
 10
29.71034343846953
 20
-13.59610322863883
 10
30.15291779877928
 20
-13.20196412927745
 10
30.86277013831785
 20
-12.56979790625123
 10
31.56451681371498
 20
-11.89230834602953
 10
32.29310259437016
 20
-11.27041702043688
 10
32.66330862784392
 20
-10.9544241381102
 10
33.09829160282865
 20
-10.81222725548674
 10
33.52582424030542
 20
-10.5769892464875
 10
33.98378603601105
 20
-10.32500843476598
 10
34.5491122065206
 20
-10.12428375465174
 10
35.04761287239798
 20
-9.975339938934129
 10
35.07958532075253
 20
-9.965787096188853
 10
35.71790117178999
 20
-9.753083315762321
 10
35.74984847794078
 20
-9.74344647817261
 10
36.51755300864267
 20
-9.511870022910353
 10
36.65757980106451
 20
-9.474969446515338
 10
37.40967809113182
 20
-9.195334661809497
 10
38.24964380235995
 20
-8.912866433300838
 10
39.0747072914011
 20
-8.615197410781319
 10
39.92077191609857
 20
-8.341336493713166
 10
40.22822329714395
 20
-8.241818183588151
 10
40.50981301201843
 20
-8.082729006061292
 10
40.8172643936824
 20
-7.983210701113184
 10
41.14788131568856
 20
-7.876193983631258
 10
41.68849884250894
 20
-7.574110771599186
 10
42.03155094129004
 20
-7.589920286233937
 10
42.35016044387292
 20
-7.60460336677726
 10
42.55108431837702
 20
-7.949495548268668
 10
42.74402395326953
 20
-8.17830227489684
 10
43.06026497973852
 20
-8.553331874832637
 10
43.38532323423974
 20
-8.92095023139832
 10
43.71896446012782
 20
-9.280589475116077
 10
43.88532399385902
 20
-9.459912088678514
 10
44.0592898048473
 20
-9.632381994890347
 10
44.30321559263166
 20
-9.69334252878934
 10
44.59686920544664
 20
-9.766730755562866
 10
44.891452122669
 20
-9.729273001594732
 10
45.20139150594156
 20
-9.736855996894116
 10
45.56070300842507
 20
-9.745646933365501
 10
45.92872098649294
 20
-9.708672351387941
 10
46.27942497796145
 20
-9.806633088574552
 10
46.59021689361855
 20
-9.89344534593236
 10
46.86803841836987
 20
-10.10349920634546
 10
47.10116789676424
 20
-10.31740487604987
 10
47.7010097379252
 20
-10.86778453718662
 10
48.34692544200993
 20
-11.33686015497561
 10
48.95009041964042
 20
-11.8837317245152
 10
49.2927892565999
 20
-12.19444646722137
 10
49.48492187279681
 20
-12.92747598158121
 10
49.54171984395555
 20
-13.38869502533812
 10
49.8044325571996
 20
-15.52201827528587
 10
50.06714532263945
 20
-17.65534151878903
 10
50.32985810973344
 20
-19.78866475964422
 10
50.46279711017086
 20
-20.86817772256747
 10
50.59573611621737
 20
-21.94769068480988
 10
50.72868885586116
 20
-23.02731510408892
 10
50.77473707304666
 20
-23.40089556649083
 10
51.0838610404841
 20
-24.10349612116157
 10
50.79501510312149
 20
-24.42819652665431
 10
50.59131236549244
 20
-24.65718490047596
 10
50.01283381473072
 20
-24.79537733665196
 10
49.73230541394124
 20
-24.92405124014276
 10
49.35681703719688
 20
-25.096281770173
 10
48.98121073262288
 20
-25.26825519892381
 10
48.6054868511529
 20
-25.43997136672829
 10
48.00837300726906
 20
-25.7128688483316
 10
47.40708912377952
 20
-25.97651966538569
 10
46.80478730219999
 20
-26.23772824104424
 10
46.50376051400122
 20
-26.36827083646496
 10
46.20247584975166
 20
-26.49821735631451
 10
45.90129712032
 20
-26.6284087266452
 10
45.60380618279682
 20
-26.75700596489446
 10
45.29926080823
 20
-26.87695669118514
 10
45.00679784753171
 20
-27.01527424605739
 10
44.42672861608931
 20
-27.28961243082946
 10
43.83201844258105
 20
-27.53331740145708
 10
43.22661986821679
 20
-27.74595200742308
 10
43.15013430022628
 20
-27.77281747035881
 10
43.08929526951917
 20
-27.80394329075921
 10
43.02719199056685
 20
-27.85744963436129
 10
42.95115618609368
 20
-27.92295982878857
 10
42.88692398870111
 20
-28.00082266328644
 10
42.82343762960149
 20
-28.0781568606182
 10
42.26775383171062
 20
-28.75504882205328
 10
41.60385809705045
 20
-29.41866138759962
 10
41.20330472721449
 20
-30.20471041640077
 10
41.18442088754863
 20
-30.24176612631103
 10
41.14828100419055
 20
-30.2696784224291
 10
41.12267850174802
 20
-30.30373308847032
 10
40.93703741498899
 20
-30.55065993339597
 10
40.8314109594945
 20
-30.82979383001774
 10
40.47850308030537
 20
-30.80128756486217
 10
39.99360488708461
 20
-30.76211909851951
 10
39.5087067233788
 20
-30.72295084071428
 10
39.02380855962775
 20
-30.68378258288916
 10
38.22280217316866
 20
-30.619080285981
 10
37.42178332315083
 20
-30.55437693022771
 10
36.62137885964274
 20
-30.48261124733939
 10
35.89561116178882
 20
-30.41753762917794
 10
35.63582574980594
 20
-29.8350770735404
 10
35.23274675092777
 20
-29.29791936707869
 10
34.73163445874189
 20
-28.63011914585509
 10
34.25050596559102
 20
-27.61764678281459
 10
33.4168795667961
 20
-27.35197215010156
 10
32.7531559840051
 20
-27.14044543521893
 10
32.09827624218256
 20
-26.90117053712663
 10
31.45452445883355
 20
-26.63498213018117
 10
31.03964087712133
 20
-26.46342967392801
 10
30.89959582969943
 20
-26.22946365489813
 10
30.86095887316019
 20
-25.79317007311315
 97
        0
 97
        0
 92
        1
 93
        1
 72
     4
 94
        3
 73
     0
 74
     1
 95
       44
 96
       40
 40
0.0
 40
0.0
 40
0.0
 40
0.0
 40
1.0
 40
1.0
 40
1.0
 40
2.0
 40
2.0
 40
2.0
 40
3.0
 40
3.0
 40
3.0
 40
4.0
 40
4.0
 40
4.0
 40
5.0
 40
5.0
 40
5.0
 40
6.0
 40
6.0
 40
6.0
 40
7.0
 40
7.0
 40
7.0
 40
8.0
 40
8.0
 40
8.0
 40
9.0
 40
9.0
 40
9.0
 40
10.0
 40
10.0
 40
10.0
 40
11.0
 40
11.0
 40
11.0
 40
12.0
 40
12.0
 40
12.0
 40
13.0
 40
13.0
 40
13.0
 40
13.0
 10
49.14469239735811
 20
-24.49061486444576
 10
49.59534556565276
 20
-24.25510595822362
 10
49.73286438009161
 20
-24.04571384190733
 10
49.32445871761166
 20
-23.67320759410065
 10
48.18683961503947
 20
-22.63558832742002
 10
47.04922064758214
 20
-21.59796894531315
 10
45.91160168012097
 20
-20.5603495631851
 10
45.18991384624959
 20
-19.90209991581875
 10
44.46821412986704
 20
-19.24386329338487
 10
43.74653817727604
 20
-18.58560061989508
 10
43.29514583340402
 20
-18.17387187926802
 10
42.77612178026073
 20
-17.41686520826233
 10
42.43292095861064
 20
-18.30977523052715
 10
41.92078886625151
 20
-19.64219971846418
 10
41.40865650062612
 20
-20.97462408375551
 10
40.89652413500009
 20
-22.30704844904813
 10
40.64883769657437
 20
-22.95145889417828
 10
40.40115125808126
 20
-23.59586933930843
 10
40.15346481952079
 20
-24.2402797843943
 10
39.88324288740468
 20
-24.94332124514892
 10
39.52881018875919
 20
-25.48394762087263
 10
39.82521972436465
 20
-26.22828523489087
 10
40.014023038151
 20
-26.70240943507245
 10
40.20784839768626
 20
-27.17453381002769
 10
40.40666791585765
 20
-27.64454579635124
 10
40.50553276497203
 20
-27.87826361500384
 10
40.59652801666805
 20
-28.119288528213
 10
40.70825830028033
 20
-28.34715978394668
 10
41.06546522830285
 20
-29.07567481659165
 10
41.54468580781136
 20
-28.35764191308683
 10
41.83836767552253
 20
-27.98299957259074
 10
42.32770319680471
 20
-27.3587657911071
 10
43.08444592375018
 20
-27.01643328877244
 10
43.81267300050617
 20
-26.70210690191109
 10
45.1456931611002
 20
-26.12673225709575
 10
46.48568775162914
 20
-25.56768028873121
 10
47.8256423849026
 20
-25.00864526454915
 10
48.00637292940837
 20
-24.93324367209251
 10
48.67715122768555
 20
-24.73487942798981
 10
49.14469239735811
 20
-24.49061486444576
 97
        0
 97
        0
 92
        1
 93
        1
 72
     4
 94
        3
 73
     0
 74
     1
 95
       71
 96
       67
 40
0.0
 40
0.0
 40
0.0
 40
0.0
 40
1.0
 40
1.0
 40
1.0
 40
2.0
 40
2.0
 40
2.0
 40
3.0
 40
3.0
 40
3.0
 40
4.0
 40
4.0
 40
4.0
 40
5.0
 40
5.0
 40
5.0
 40
6.0
 40
6.0
 40
6.0
 40
7.0
 40
7.0
 40
7.0
 40
8.0
 40
8.0
 40
8.0
 40
9.0
 40
9.0
 40
9.0
 40
10.0
 40
10.0
 40
10.0
 40
11.0
 40
11.0
 40
11.0
 40
12.0
 40
12.0
 40
12.0
 40
13.0
 40
13.0
 40
13.0
 40
14.0
 40
14.0
 40
14.0
 40
15.0
 40
15.0
 40
15.0
 40
16.0
 40
16.0
 40
16.0
 40
17.0
 40
17.0
 40
17.0
 40
18.0
 40
18.0
 40
18.0
 40
19.0
 40
19.0
 40
19.0
 40
20.0
 40
20.0
 40
20.0
 40
21.0
 40
21.0
 40
21.0
 40
22.0
 40
22.0
 40
22.0
 40
22.0
 10
40.05433855439077
 20
-28.24849935501475
 10
39.82687394689211
 20
-27.64551921976282
 10
39.59448798301236
 20
-27.05719947902604
 10
39.32419533862419
 20
-26.47309996765316
 10
39.2770852556462
 20
-26.37129558226062
 10
39.22997517280297
 20
-26.26949119731535
 10
39.18283579884282
 20
-26.16762351042954
 10
39.08885996155211
 20
-25.96451512816648
 10
39.03795723218143
 20
-25.6906573523441
 10
38.84652193088301
 20
-25.55220220960458
 10
38.74086452462677
 20
-25.47578573279907
 10
38.72788558041157
 20
-25.4427507453243
 10
38.60793975217565
 20
-25.40959469202816
 10
38.45176136119674
 20
-25.36642304418952
 10
38.20101592952425
 20
-25.30283274212955
 10
38.04496701551869
 20
-25.25919501767322
 10
37.22084621687959
 20
-25.02873678881329
 10
36.28848465541699
 20
-24.81169901167301
 10
35.46375470325676
 20
-24.5822623779337
 10
34.63018885006342
 20
-24.35036763120923
 10
33.87896249133726
 20
-24.18728817373071
 10
33.04539663807975
 20
-23.95539342698378
 10
32.74114753173256
 20
-23.87075252047166
 10
32.38881329032031
 20
-23.78655368635004
 10
32.08456418392917
 20
-23.7019127798392
 10
31.9521045943726
 20
-23.66506304220876
 10
31.89331012520602
 20
-23.64098825149042
 10
31.75599034726314
 20
-23.67234418540764
 10
31.62520263231484
 20
-23.70220857208819
 10
31.60592102963169
 20
-23.8704833710515
 10
31.60816563153062
 20
-23.99554805234378
 10
31.61390346666512
 20
-24.3152315050161
 10
31.61964125820613
 20
-24.63491495850916
 10
31.62537904270706
 20
-24.95459841211772
 10
31.62940776178677
 20
-25.17906045253864
 10
31.65996251602688
 20
-25.38073230430082
 10
31.812780002302
 20
-25.55578884590726
 10
32.07186884799602
 20
-25.85258208873948
 10
32.50069337534528
 20
-25.93669629111593
 10
32.85535110053374
 20
-26.06308298504953
 10
32.89179734644834
 20
-26.07607105832394
 10
32.92811293568528
 20
-26.08941691420059
 10
32.96412234596028
 20
-26.10357650536996
 10
33.39872660596768
 20
-26.27447102039365
 10
33.83842274807302
 20
-26.44810274332035
 10
34.21751338753988
 20
-26.72082281082429
 10
34.51551930129949
 20
-26.93520991253726
 10
34.76824208795365
 20
-27.20532609034412
 10
35.01886373993632
 20
-27.47357641641181
 10
35.41417169148662
 20
-27.89669025288256
 10
35.80955396443549
 20
-28.31973479124155
 10
36.20482286764119
 20
-28.74295565623691
 10
36.87288753733607
 20
-29.45825622876682
 10
37.9762932615446
 20
-29.33002435823668
 10
38.89773003198326
 20
-29.42603056374494
 10
39.30211518138206
 20
-29.46816420357262
 10
39.70657375565272
 20
-29.51030442957593
 10
40.11204394235087
 20
-29.54024610918812
 10
40.86252290273158
 20
-29.59566473506123
 10
40.41143536544703
 20
-28.89731285969499
 10
40.18786366649389
 20
-28.54202013674589
 10
40.1311270475123
 20
-28.45185627541018
 10
40.09315332718055
 20
-28.35140902912384
 10
40.05555850012766
 20
-28.25173354341596
 10
40.0551518671837
 20
-28.25065543371335
 10
40.05474521864003
 20
-28.24957737094332
 10
40.05433855439077
 20
-28.24849935501475
 97
        0
 97
        0
 92
        1
 93
        2
 72
     4
 94
        3
 73
     0
 74
     0
 95
       53
 96
       49
 40
0.0
 40
0.0
 40
0.0
 40
0.0
 40
0.3527777776895833
 40
0.3527777776895833
 40
0.3527777776895833
 40
0.7055555553791667
 40
0.7055555553791667
 40
0.7055555553791667
 40
1.05833333306875
 40
1.05833333306875
 40
1.05833333306875
 40
1.411111110758333
 40
1.411111110758333
 40
1.411111110758333
 40
1.763888888447917
 40
1.763888888447917
 40
1.763888888447917
 40
2.1166666661375
 40
2.1166666661375
 40
2.1166666661375
 40
2.469444443827083
 40
2.469444443827083
 40
2.469444443827083
 40
2.822222221516667
 40
2.822222221516667
 40
2.822222221516667
 40
3.17499999920625
 40
3.17499999920625
 40
3.17499999920625
 40
3.527777776895833
 40
3.527777776895833
 40
3.527777776895833
 40
3.880555554585417
 40
3.880555554585417
 40
3.880555554585417
 40
4.233333332275
 40
4.233333332275
 40
4.233333332275
 40
4.586111109964584
 40
4.586111109964584
 40
4.586111109964584
 40
4.938888887654167
 40
4.938888887654167
 40
4.938888887654167
 40
5.29166666534375
 40
5.29166666534375
 40
5.29166666534375
 40
5.644444443033334
 40
5.644444443033334
 40
5.644444443033334
 40
5.644444443033334
 10
42.14216570010235
 20
-18.21331877136445
 10
42.21093977907664
 20
-18.05688440403343
 10
42.34978918969963
 20
-17.87183562752019
 10
42.29612598665542
 20
-17.69372221131691
 10
42.24922075777646
 20
-17.53803917190084
 10
42.0667764102214
 20
-17.43883887263075
 10
41.93372996916602
 20
-17.36898245517418
 10
38.56705323365255
 20
-15.60130022054057
 10
34.96253371002221
 20
-14.08534420598201
 10
31.16504561819864
 20
-13.88967689591256
 10
31.08795052779157
 20
-13.88570453507546
 10
31.00334147277521
 20
-13.88455425605445
 10
30.94285375268571
 20
-13.93251963829618
 10
30.85994927594458
 20
-13.99826112562151
 10
30.86085708696925
 20
-14.12208771508248
 10
30.8692449514441
 20
-14.22756170223772
 10
31.09917533588425
 20
-17.11881695604296
 10
31.32910558756874
 20
-20.0100721959413
 10
31.55903583925515
 20
-22.90132743579311
 10
31.56977343111964
 20
-23.03634715532952
 10
31.58463588711575
 20
-23.18156479088386
 10
31.67394240002548
 20
-23.28339766730947
 10
31.75481331873147
 20
-23.37561172106015
 10
31.87999669010201
 20
-23.41267535082059
 10
31.99822713927132
 20
-23.4453107425837
 10
34.16432508321935
 20
-24.0432229630595
 10
36.34603011976492
 20
-24.58459303476456
 10
38.54037170290432
 20
-25.06868382483435
 10
38.73855577381227
 20
-25.11240495864538
 10
38.95899953365956
 20
-25.15252293022619
 10
39.13385131626804
 20
-25.04949207425538
 10
39.28334780908213
 20
-24.96140164918374
 10
39.35989860168947
 20
-24.79085162546443
 10
39.42737964222538
 20
-24.63099075452865
 10
39.92774755141122
 20
-23.30796771013146
 10
40.559077628074
 20
-22.03396008581202
 10
41.0739860230326
 20
-20.71633892749221
 10
41.15438894542721
 20
-20.51058662468655
 10
41.2205856661375
 20
-20.29903151223109
 10
41.30679852380054
 20
-20.09588634031485
 10
41.37439404510195
 20
-19.93660761571817
 10
41.46986949331475
 20
-19.78935149444092
 10
41.54171966114547
 20
-19.63163577557901
 10
41.63120578755523
 20
-19.43520969163081
 10
41.70927197218252
 20
-19.23357847592585
 10
41.79200395741538
 20
-19.03408414623672
 10
41.83027975242672
 20
-18.94179091639712
 10
41.85028945588844
 20
-18.83532538488599
 10
41.90978595667406
 20
-18.75990356009338
 97
        0
 72
     1
 10
41.90978595667406
 20
-18.75990356009338
 11
42.14216570010235
 21
-18.21331877136445
 97
        0
 92
        1
 93
        2
 72
     4
 94
        3
 73
     0
 74
     0
 95
       41
 96
       37
 40
0.0
 40
0.0
 40
0.0
 40
0.0
 40
0.3527777776895833
 40
0.3527777776895833
 40
0.3527777776895833
 40
0.7055555553791667
 40
0.7055555553791667
 40
0.7055555553791667
 40
1.05833333306875
 40
1.05833333306875
 40
1.05833333306875
 40
1.411111110758333
 40
1.411111110758333
 40
1.411111110758333
 40
1.763888888447917
 40
1.763888888447917
 40
1.763888888447917
 40
2.1166666661375
 40
2.1166666661375
 40
2.1166666661375
 40
2.469444443827083
 40
2.469444443827083
 40
2.469444443827083
 40
2.822222221516667
 40
2.822222221516667
 40
2.822222221516667
 40
3.17499999920625
 40
3.17499999920625
 40
3.17499999920625
 40
3.527777776895833
 40
3.527777776895833
 40
3.527777776895833
 40
3.880555554585417
 40
3.880555554585417
 40
3.880555554585417
 40
4.233333332275
 40
4.233333332275
 40
4.233333332275
 40
4.233333332275
 10
43.13051161799019
 20
-16.74255887918304
 10
43.04927213644321
 20
-17.00307240291433
 10
43.1249756558398
 20
-17.29223313137678
 10
43.26926090869615
 20
-17.52385534111849
 10
43.41354616157625
 20
-17.75547755083581
 10
43.62030338603682
 20
-17.94028840850928
 10
43.82415689803515
 20
-18.12170159787747
 10
45.73209829463067
 20
-19.8196155031428
 10
47.64003967718902
 20
-21.51752941946139
 10
49.54798105979549
 20
-23.21544333578191
 10
49.64913471721467
 20
-23.3054619308035
 10
49.81692716912328
 20
-23.39246255337903
 10
49.90147433852032
 20
-23.28669298392589
 10
49.94305038461604
 20
-23.23468086711406
 10
49.93692406687972
 20
-23.16052551852808
 10
49.92868247253747
 20
-23.09445048365518
 10
49.60025360437049
 20
-20.46134713737285
 10
49.27182475066419
 20
-17.82824381410344
 10
48.94339263956266
 20
-15.19511437494086
 10
48.85568906795342
 20
-14.49197082708177
 10
48.91337097314636
 20
-13.77682479258996
 10
48.5880659841029
 20
-13.12682401160547
 10
48.27840609505954
 20
-12.50808413206473
 10
47.76777077670987
 20
-12.00081457042496
 10
47.18823531040141
 20
-11.63125711513684
 10
46.44721944239097
 20
-11.15872703820209
 10
45.59333605022405
 20
-10.89331468126975
 10
44.7363049249025
 20
-10.69867104439523
 10
44.18168362936539
 20
-10.57270872326731
 10
43.58214216422002
 20
-10.4535016482078
 10
43.19130781131688
 20
-10.04032687594689
 10
42.8628466636829
 20
-9.693090613639102
 10
42.43203750278404
 20
-9.056895310004748
 10
42.3371694787773
 20
-9.83378070348974
 10
42.27863652129469
 20
-10.31311396885069
 10
42.41588950112785
 20
-10.82721935697727
 10
42.46587854135119
 20
-11.35060457048885
 97
        0
 72
     1
 10
42.46587854135119
 20
-11.35060457048885
 11
43.13051161799019
 21
-16.74255887918304
 97
        0
 92
        1
 93
        2
 72
     4
 94
        3
 73
     0
 74
     0
 95
       53
 96
       49
 40
0.0
 40
0.0
 40
0.0
 40
0.0
 40
0.3527777776895833
 40
0.3527777776895833
 40
0.3527777776895833
 40
0.7055555553791667
 40
0.7055555553791667
 40
0.7055555553791667
 40
1.05833333306875
 40
1.05833333306875
 40
1.05833333306875
 40
1.411111110758333
 40
1.411111110758333
 40
1.411111110758333
 40
1.763888888447917
 40
1.763888888447917
 40
1.763888888447917
 40
2.1166666661375
 40
2.1166666661375
 40
2.1166666661375
 40
2.469444443827083
 40
2.469444443827083
 40
2.469444443827083
 40
2.822222221516667
 40
2.822222221516667
 40
2.822222221516667
 40
3.17499999920625
 40
3.17499999920625
 40
3.17499999920625
 40
3.527777776895833
 40
3.527777776895833
 40
3.527777776895833
 40
3.880555554585417
 40
3.880555554585417
 40
3.880555554585417
 40
4.233333332275
 40
4.233333332275
 40
4.233333332275
 40
4.586111109964584
 40
4.586111109964584
 40
4.586111109964584
 40
4.938888887654167
 40
4.938888887654167
 40
4.938888887654167
 40
5.29166666534375
 40
5.29166666534375
 40
5.29166666534375
 40
5.644444443033334
 40
5.644444443033334
 40
5.644444443033334
 40
5.644444443033334
 10
42.03441112728974
 20
-12.07581365534665
 10
41.99387459065368
 20
-11.72045241622143
 10
41.9968084285019
 20
-11.31866327556611
 10
41.96942065443538
 20
-11.00015787639657
 10
41.92080973519494
 20
-10.43484423320946
 10
41.86713789667778
 20
-9.879244065366425
 10
41.86904628032426
 20
-9.313026789865106
 10
41.86977762934678
 20
-9.095567234367723
 10
41.79623951758985
 20
-8.741687081332014
 10
41.53573664503077
 20
-8.697548359580852
 10
41.26138901373976
 20
-8.651063828910099
 10
40.81734203993867
 20
-8.905634688779347
 10
40.55877326889578
 20
-8.992249746502125
 10
39.43931860259273
 20
-9.36724333496065
 10
38.31124699061209
 20
-9.572062183774563
 10
37.18791522166079
 20
-9.935276502489813
 10
35.96918614535919
 20
-10.32933626242998
 10
34.69162057414339
 20
-10.56608408459985
 10
33.5501789791838
 20
-11.36899988745264
 10
32.86764720810547
 20
-11.849108153506
 10
32.13609591053532
 20
-12.27699691505931
 10
31.51848042834481
 20
-12.84312486808949
 10
31.40787366879967
 20
-12.94451087588567
 10
31.29137103859948
 20
-13.07400887810385
 10
31.31254738615506
 20
-13.2225503932354
 10
31.33345068212952
 20
-13.36917537135119
 10
31.47978499271298
 20
-13.46192070952935
 10
31.61786010435782
 20
-13.51550250006692
 10
32.00268161719455
 20
-13.66483721128093
 10
32.4259508767668
 20
-13.66727128821126
 10
32.8382395541891
 20
-13.68742972023001
 10
34.17674772916462
 20
-13.75287495148017
 10
35.50485121692132
 20
-14.02695273208755
 10
36.75991693015178
 20
-14.49673767127753
 10
38.44632730575767
 20
-15.12797967810164
 10
39.98707220094538
 20
-16.10375113567425
 10
41.67289888562365
 20
-16.73655032798786
 10
41.83542738910462
 20
-16.79755772922613
 10
42.01445788699003
 20
-16.8557270182491
 10
42.17903993134983
 20
-16.80050005443323
 10
42.52845537622704
 20
-16.683250604618
 10
42.36447825462199
 20
-15.98373550644339
 10
42.34619089485673
 20
-15.71635414830384
 10
42.31160278239551
 20
-15.21063781706593
 10
42.24895893957082
 20
-14.70733125042386
 10
42.21237246926031
 20
-14.20177751974576
 10
42.16097234531428
 20
-13.49152796027168
 10
42.08314954246789
 20
-12.78581400699393
 10
42.03441112728974
 20
-12.07581365534665
 97
        0
 72
     1
 10
42.03441112728974
 20
-12.07581365534665
 11
42.03441112728974
 21
-12.07581365534665
 97
        0
 75
     2
 76
     1
 98
        0
  0
ENDBLK
  5
44
330
41
100
AcDbEntity
  8
0
100
AcDbBlockEnd
  0
ENDSEC
  0
SECTION
  2
ENTITIES
  0
INSERT
  5
42
330
1F
100
AcDbEntity
  8
Layer 1
100
AcDbBlockReference
  2
block 2
 10
0.0
 20
0.0
 30
0.0
  0
ENDSEC
  0
SECTION
  2
OBJECTS
  0
DICTIONARY
  5
C
330
0
100
AcDbDictionary
281
     1
  3
ACAD_GROUP
350
D
  3
ACAD_LAYOUT
350
1A
  3
ACAD_MATERIAL
350
3B
  3
ACAD_MLEADERSTYLE
350
61
  3
ACAD_MLINESTYLE
350
17
  3
ACAD_PLOTSETTINGS
350
19
  3
ACAD_PLOTSTYLENAME
350
E
  3
ACAD_TABLESTYLE
350
60
  3
ACAD_VISUALSTYLE
350
2A
  0
SUN
  5
3F
330
29
100
AcDbSun
 90
        1
290
     0
 63
     7
421
 16777215
 40
1.0
291
     1
 91
  2455826
 92
 54000000
292
     0
 70
     2
 71
   256
280
     1
  0
DICTIONARY
  5
D
102
{ACAD_REACTORS
330
C
102
}
330
C
100
AcDbDictionary
281
     1
  0
DICTIONARY
  5
1A
102
{ACAD_REACTORS
330
C
102
}
330
C
100
AcDbDictionary
281
     1
  3
Layout1
350
1E
  3
Layout2
350
26
  3
Model
350
22
  0
DICTIONARY
  5
3B
102
{ACAD_REACTORS
330
C
102
}
330
C
100
AcDbDictionary
281
     1
  3
ByBlock
350
3D
  3
ByLayer
350
3C
  3
Global
350
3E
  0
DICTIONARY
  5
61
102
{ACAD_REACTORS
330
C
102
}
330
C
100
AcDbDictionary
281
     1
  0
DICTIONARY
  5
17
102
{ACAD_REACTORS
330
C
102
}
330
C
100
AcDbDictionary
281
     1
  3
Standard
350
18
  0
DICTIONARY
  5
19
102
{ACAD_REACTORS
330
C
102
}
330
C
100
AcDbDictionary
281
     1
  0
ACDBDICTIONARYWDFLT
  5
E
102
{ACAD_REACTORS
330
C
102
}
330
C
100
AcDbDictionary
281
     1
  3
Normal
350
F
100
AcDbDictionaryWithDefault
340
F
  0
DICTIONARY
  5
60
102
{ACAD_REACTORS
330
C
102
}
330
C
100
AcDbDictionary
281
     1
  0
DICTIONARY
  5
2A
102
{ACAD_REACTORS
330
C
102
}
330
C
100
AcDbDictionary
281
     1
  3
2dWireframe
350
2F
  3
3D Hidden
350
31
  3
3dWireframe
350
30
  3
Basic
350
32
  3
Brighten
350
36
  3
ColorChange
350
3A
  3
Conceptual
350
34
  3
Dim
350
35
  3
Facepattern
350
39
  3
Flat
350
2B
  3
FlatWithEdges
350
2C
  3
Gouraud
350
2D
  3
GouraudWithEdges
350
2E
  3
Linepattern
350
38
  3
Realistic
350
33
  3
Thicken
350
37
  0
LAYOUT
  5
1E
102
{ACAD_REACTORS
330
1A
102
}
330
1A
100
AcDbPlotSettings
  1

  2
none_device
  4

  6

 40
0.0
 41
0.0
 42
0.0
 43
0.0
 44
0.0
 45
0.0
 46
0.0
 47
0.0
 48
0.0
 49
0.0
140
0.0
141
0.0
142
1.0
143
1.0
 70
   688
 72
     0
 73
     0
 74
     5
  7

 75
    16
 76
     0
 77
     2
 78
   300
147
1.0
148
0.0
149
0.0
100
AcDbLayout
  1
Layout1
 70
     1
 71
     1
 10
0.0
 20
0.0
 11
12.0
 21
9.0
 12
0.0
 22
0.0
 32
0.0
 14
1.000000000000000E+20
 24
1.000000000000000E+20
 34
1.000000000000000E+20
 15
-1.000000000000000E+20
 25
-1.000000000000000E+20
 35
-1.000000000000000E+20
146
0.0
 13
0.0
 23
0.0
 33
0.0
 16
1.0
 26
0.0
 36
0.0
 17
0.0
 27
1.0
 37
0.0
 76
     0
330
1B
  0
LAYOUT
  5
26
102
{ACAD_REACTORS
330
1A
102
}
330
1A
100
AcDbPlotSettings
  1

  2
none_device
  4

  6

 40
0.0
 41
0.0
 42
0.0
 43
0.0
 44
0.0
 45
0.0
 46
0.0
 47
0.0
 48
0.0
 49
0.0
140
0.0
141
0.0
142
1.0
143
1.0
 70
   688
 72
     0
 73
     0
 74
     5
  7

 75
    16
 76
     0
 77
     2
 78
   300
147
1.0
148
0.0
149
0.0
100
AcDbLayout
  1
Layout2
 70
     1
 71
     2
 10
0.0
 20
0.0
 11
0.0
 21
0.0
 12
0.0
 22
0.0
 32
0.0
 14
0.0
 24
0.0
 34
0.0
 15
0.0
 25
0.0
 35
0.0
146
0.0
 13
0.0
 23
0.0
 33
0.0
 16
1.0
 26
0.0
 36
0.0
 17
0.0
 27
1.0
 37
0.0
 76
     0
330
23
  0
LAYOUT
  5
22
102
{ACAD_REACTORS
330
1A
102
}
330
1A
100
AcDbPlotSettings
  1

  2
none_device
  4

  6

 40
0.0
 41
0.0
 42
0.0
 43
0.0
 44
0.0
 45
0.0
 46
0.0
 47
0.0
 48
0.0
 49
0.0
140
0.0
141
0.0
142
1.0
143
1.0
 70
  1712
 72
     0
 73
     0
 74
     0
  7

 75
     0
 76
     0
 77
     2
 78
   300
147
1.0
148
0.0
149
0.0
100
AcDbLayout
  1
Model
 70
     1
 71
     0
 10
0.0
 20
0.0
 11
12.0
 21
9.0
 12
0.0
 22
0.0
 32
0.0
 14
1.000000000000000E+20
 24
1.000000000000000E+20
 34
1.000000000000000E+20
 15
-1.000000000000000E+20
 25
-1.000000000000000E+20
 35
-1.000000000000000E+20
146
0.0
 13
0.0
 23
0.0
 33
0.0
 16
1.0
 26
0.0
 36
0.0
 17
0.0
 27
1.0
 37
0.0
 76
     0
330
1F
331
29
  0
MATERIAL
  5
3D
102
{ACAD_REACTORS
330
3B
102
}
330
3B
100
AcDbMaterial
  1
ByBlock
 72
     1
 94
      127
  0
MATERIAL
  5
3C
102
{ACAD_REACTORS
330
3B
102
}
330
3B
100
AcDbMaterial
  1
ByLayer
 72
     1
 94
      127
  0
MATERIAL
  5
3E
102
{ACAD_REACTORS
330
3B
102
}
330
3B
100
AcDbMaterial
  1
Global
 72
     1
 94
      127
  0
MLINESTYLE
  5
18
102
{ACAD_REACTORS
330
17
102
}
330
17
100
AcDbMlineStyle
  2
Standard
 70
     0
  3

 62
   256
 51
90.0
 52
90.0
 71
     2
 49
0.5
 62
   256
  6
BYLAYER
 49
-0.5
 62
   256
  6
BYLAYER
  0
ACDBPLACEHOLDER
  5
F
102
{ACAD_REACTORS
330
E
102
}
330
E
  0
VISUALSTYLE
  5
2F
102
{ACAD_REACTORS
330
2A
102
}
330
2A
100
AcDbVisualStyle
  2
2dWireframe
 70
     4
177
     2
291
     0
 71
     0
176
     1
 72
     2
176
     1
 73
     0
176
     1
 90
        0
176
     1
 40
-0.6
176
     1
 41
-30.0
176
     1
 62
     5
 63
     7
421
 16777215
176
     1
 74
     1
176
     1
 91
        4
176
     1
 64
     7
176
     1
 65
   257
176
     1
 75
     1
176
     1
175
     1
176
     1
 42
1.0
176
     1
 92
        0
176
     1
 66
   257
176
     1
 43
1.0
176
     1
 76
     1
176
     1
 77
     6
176
     1
 78
     2
176
     1
 67
     7
176
     1
 79
     5
176
     1
170
     0
176
     1
171
     0
176
     1
290
     0
176
     1
 93
        1
176
     1
 44
0.0
176
     1
173
     0
176
     1
  0
VISUALSTYLE
  5
31
102
{ACAD_REACTORS
330
2A
102
}
330
2A
100
AcDbVisualStyle
  2
3D Hidden
 70
     6
177
     2
291
     0
 71
     1
176
     1
 72
     2
176
     1
 73
     2
176
     1
 90
        0
176
     1
 40
-0.6
176
     1
 41
-30.0
176
     1
 62
     5
 63
     7
421
 16777215
176
     1
 74
     2
176
     1
 91
        2
176
     1
 64
     7
176
     1
 65
   257
176
     1
 75
     2
176
     1
175
     1
176
     1
 42
40.0
176
     1
 92
        0
176
     1
 66
   257
176
     1
 43
1.0
176
     1
 76
     1
176
     1
 77
     6
176
     1
 78
     2
176
     1
 67
     7
176
     1
 79
     3
176
     1
170
     0
176
     1
171
     0
176
     1
290
     0
176
     1
 93
        1
176
     1
 44
0.0
176
     1
173
     0
176
     1
  0
VISUALSTYLE
  5
30
102
{ACAD_REACTORS
330
2A
102
}
330
2A
100
AcDbVisualStyle
  2
3dWireframe
 70
     5
177
     2
291
     0
 71
     0
176
     1
 72
     2
176
     1
 73
     0
176
     1
 90
        0
176
     1
 40
-0.6
176
     1
 41
-30.0
176
     1
 62
     5
 63
     7
421
 16777215
176
     1
 74
     1
176
     1
 91
        4
176
     1
 64
     7
176
     1
 65
   257
176
     1
 75
     1
176
     1
175
     1
176
     1
 42
1.0
176
     1
 92
        0
176
     1
 66
   257
176
     1
 43
1.0
176
     1
 76
     1
176
     1
 77
     6
176
     1
 78
     2
176
     1
 67
     7
176
     1
 79
     5
176
     1
170
     0
176
     1
171
     0
176
     1
290
     0
176
     1
 93
        1
176
     1
 44
0.0
176
     1
173
     0
176
     1
  0
VISUALSTYLE
  5
32
102
{ACAD_REACTORS
330
2A
102
}
330
2A
100
AcDbVisualStyle
  2
Basic
 70
     7
177
     2
291
     1
 71
     1
176
     1
 72
     0
176
     1
 73
     1
176
     1
 90
        0
176
     1
 40
-0.6
176
     1
 41
-30.0
176
     1
 62
     5
 63
     7
421
 16777215
176
     1
 74
     0
176
     1
 91
        4
176
     1
 64
     7
176
     1
 65
   257
176
     1
 75
     1
176
     1
175
     1
176
     1
 42
1.0
176
     1
 92
        8
176
     1
 66
     7
176
     1
 43
1.0
176
     1
 76
     1
176
     1
 77
     6
176
     1
 78
     2
176
     1
 67
     7
176
     1
 79
     5
176
     1
170
     0
176
     1
171
     0
176
     1
290
     0
176
     1
 93
        1
176
     1
 44
0.0
176
     1
173
     0
176
     1
  0
VISUALSTYLE
  5
36
102
{ACAD_REACTORS
330
2A
102
}
330
2A
100
AcDbVisualStyle
  2
Brighten
 70
    12
177
     2
291
     1
 71
     2
176
     1
 72
     2
176
     1
 73
     0
176
     1
 90
        0
176
     1
 40
-0.6
176
     1
 41
-30.0
176
     1
 62
     5
 63
     7
421
 16777215
176
     1
 74
     1
176
     1
 91
        4
176
     1
 64
     7
176
     1
 65
   257
176
     1
 75
     1
176
     1
175
     1
176
     1
 42
1.0
176
     1
 92
        8
176
     1
 66
     7
176
     1
 43
1.0
176
     1
 76
     1
176
     1
 77
     6
176
     1
 78
     2
176
     1
 67
     7
176
     1
 79
     5
176
     1
170
     0
176
     1
171
     0
176
     1
290
     0
176
     1
 93
        1
176
     1
 44
50.0
176
     1
173
     0
176
     1
  0
VISUALSTYLE
  5
3A
102
{ACAD_REACTORS
330
2A
102
}
330
2A
100
AcDbVisualStyle
  2
ColorChange
 70
    16
177
     2
291
     1
 71
     2
176
     1
 72
     2
176
     1
 73
     3
176
     1
 90
        0
176
     1
 40
-0.6
176
     1
 41
-30.0
176
     1
 62
     5
 63
     8
421
  8421504
176
     1
 74
     1
176
     1
 91
        4
176
     1
 64
     7
176
     1
 65
   257
176
     1
 75
     1
176
     1
175
     1
176
     1
 42
1.0
176
     1
 92
        8
176
     1
 66
     8
424
  8421504
176
     1
 43
1.0
176
     1
 76
     1
176
     1
 77
     6
176
     1
 78
     2
176
     1
 67
     7
176
     1
 79
     5
176
     1
170
     0
176
     1
171
     0
176
     1
290
     0
176
     1
 93
        1
176
     1
 44
0.0
176
     1
173
     0
176
     1
  0
VISUALSTYLE
  5
34
102
{ACAD_REACTORS
330
2A
102
}
330
2A
100
AcDbVisualStyle
  2
Conceptual
 70
     9
177
     2
291
     0
 71
     3
176
     1
 72
     2
176
     1
 73
     0
176
     1
 90
        0
176
     1
 40
-0.6
176
     1
 41
-30.0
176
     1
 62
     5
 63
     7
421
 16777215
176
     1
 74
     2
176
     1
 91
        2
176
     1
 64
     7
176
     1
 65
   257
176
     1
 75
     1
176
     1
175
     1
176
     1
 42
40.0
176
     1
 92
        8
176
     1
 66
     7
176
     1
 43
1.0
176
     1
 76
     1
176
     1
 77
     6
176
     1
 78
     2
176
     1
 67
     7
176
     1
 79
     3
176
     1
170
     0
176
     1
171
     0
176
     1
290
     0
176
     1
 93
        1
176
     1
 44
0.0
176
     1
173
     0
176
     1
  0
VISUALSTYLE
  5
35
102
{ACAD_REACTORS
330
2A
102
}
330
2A
100
AcDbVisualStyle
  2
Dim
 70
    11
177
     2
291
     1
 71
     2
176
     1
 72
     2
176
     1
 73
     0
176
     1
 90
        0
176
     1
 40
-0.6
176
     1
 41
-30.0
176
     1
 62
     5
 63
     7
421
 16777215
176
     1
 74
     1
176
     1
 91
        4
176
     1
 64
     7
176
     1
 65
   257
176
     1
 75
     1
176
     1
175
     1
176
     1
 42
1.0
176
     1
 92
        8
176
     1
 66
     7
176
     1
 43
1.0
176
     1
 76
     1
176
     1
 77
     6
176
     1
 78
     2
176
     1
 67
     7
176
     1
 79
     5
176
     1
170
     0
176
     1
171
     0
176
     1
290
     0
176
     1
 93
        1
176
     1
 44
-50.0
176
     1
173
     0
176
     1
  0
VISUALSTYLE
  5
39
102
{ACAD_REACTORS
330
2A
102
}
330
2A
100
AcDbVisualStyle
  2
Facepattern
 70
    15
177
     2
291
     1
 71
     2
176
     1
 72
     2
176
     1
 73
     0
176
     1
 90
        0
176
     1
 40
-0.6
176
     1
 41
-30.0
176
     1
 62
     5
 63
     7
421
 16777215
176
     1
 74
     1
176
     1
 91
        4
176
     1
 64
     7
176
     1
 65
   257
176
     1
 75
     1
176
     1
175
     1
176
     1
 42
1.0
176
     1
 92
        8
176
     1
 66
     7
176
     1
 43
1.0
176
     1
 76
     1
176
     1
 77
     6
176
     1
 78
     2
176
     1
 67
     7
176
     1
 79
     5
176
     1
170
     0
176
     1
171
     0
176
     1
290
     0
176
     1
 93
        1
176
     1
 44
0.0
176
     1
173
     0
176
     1
  0
VISUALSTYLE
  5
2B
102
{ACAD_REACTORS
330
2A
102
}
330
2A
100
AcDbVisualStyle
  2
Flat
 70
     0
177
     2
291
     1
 71
     2
176
     1
 72
     1
176
     1
 73
     1
176
     1
 90
        2
176
     1
 40
-0.6
176
     1
 41
30.0
176
     1
 62
     5
 63
     7
421
 16777215
176
     1
 74
     0
176
     1
 91
        4
176
     1
 64
     7
176
     1
 65
   257
176
     1
 75
     1
176
     1
175
     1
176
     1
 42
1.0
176
     1
 92
        8
176
     1
 66
     7
176
     1
 43
1.0
176
     1
 76
     1
176
     1
 77
     6
176
     1
 78
     2
176
     1
 67
     7
176
     1
 79
     5
176
     1
170
     0
176
     1
171
     0
176
     1
290
     0
176
     1
 93
       13
176
     1
 44
0.0
176
     1
173
     0
176
     1
  0
VISUALSTYLE
  5
2C
102
{ACAD_REACTORS
330
2A
102
}
330
2A
100
AcDbVisualStyle
  2
FlatWithEdges
 70
     1
177
     2
291
     1
 71
     2
176
     1
 72
     1
176
     1
 73
     1
176
     1
 90
        2
176
     1
 40
-0.6
176
     1
 41
30.0
176
     1
 62
     5
 63
     7
421
 16777215
176
     1
 74
     1
176
     1
 91
        4
176
     1
 64
     7
176
     1
 65
   257
176
     1
 75
     1
176
     1
175
     1
176
     1
 42
1.0
176
     1
 92
        0
176
     1
 66
   257
176
     1
 43
1.0
176
     1
 76
     1
176
     1
 77
     6
176
     1
 78
     2
176
     1
 67
     7
176
     1
 79
     5
176
     1
170
     0
176
     1
171
     0
176
     1
290
     0
176
     1
 93
       13
176
     1
 44
0.0
176
     1
173
     0
176
     1
  0
VISUALSTYLE
  5
2D
102
{ACAD_REACTORS
330
2A
102
}
330
2A
100
AcDbVisualStyle
  2
Gouraud
 70
     2
177
     2
291
     1
 71
     2
176
     1
 72
     2
176
     1
 73
     1
176
     1
 90
        2
176
     1
 40
-0.6
176
     1
 41
30.0
176
     1
 62
     5
 63
     7
421
 16777215
176
     1
 74
     0
176
     1
 91
        4
176
     1
 64
     7
176
     1
 65
   257
176
     1
 75
     1
176
     1
175
     1
176
     1
 42
1.0
176
     1
 92
        0
176
     1
 66
     7
176
     1
 43
1.0
176
     1
 76
     1
176
     1
 77
     6
176
     1
 78
     2
176
     1
 67
     7
176
     1
 79
     5
176
     1
170
     0
176
     1
171
     0
176
     1
290
     0
176
     1
 93
       13
176
     1
 44
0.0
176
     1
173
     0
176
     1
  0
VISUALSTYLE
  5
2E
102
{ACAD_REACTORS
330
2A
102
}
330
2A
100
AcDbVisualStyle
  2
GouraudWithEdges
 70
     3
177
     2
291
     1
 71
     2
176
     1
 72
     2
176
     1
 73
     1
176
     1
 90
        2
176
     1
 40
-0.6
176
     1
 41
30.0
176
     1
 62
     5
 63
     7
421
 16777215
176
     1
 74
     1
176
     1
 91
        4
176
     1
 64
     7
176
     1
 65
   257
176
     1
 75
     1
176
     1
175
     1
176
     1
 42
1.0
176
     1
 92
        0
176
     1
 66
   257
176
     1
 43
1.0
176
     1
 76
     1
176
     1
 77
     6
176
     1
 78
     2
176
     1
 67
     7
176
     1
 79
     5
176
     1
170
     0
176
     1
171
     0
176
     1
290
     0
176
     1
 93
       13
176
     1
 44
0.0
176
     1
173
     0
176
     1
  0
VISUALSTYLE
  5
38
102
{ACAD_REACTORS
330
2A
102
}
330
2A
100
AcDbVisualStyle
  2
Linepattern
 70
    14
177
     2
291
     1
 71
     2
176
     1
 72
     2
176
     1
 73
     0
176
     1
 90
        0
176
     1
 40
-0.6
176
     1
 41
-30.0
176
     1
 62
     5
 63
     7
421
 16777215
176
     1
 74
     1
176
     1
 91
        4
176
     1
 64
     7
176
     1
 65
   257
176
     1
 75
     7
176
     1
175
     7
176
     1
 42
1.0
176
     1
 92
        8
176
     1
 66
     7
176
     1
 43
1.0
176
     1
 76
     1
176
     1
 77
     6
176
     1
 78
     2
176
     1
 67
     7
176
     1
 79
     5
176
     1
170
     0
176
     1
171
     0
176
     1
290
     0
176
     1
 93
        1
176
     1
 44
0.0
176
     1
173
     0
176
     1
  0
VISUALSTYLE
  5
33
102
{ACAD_REACTORS
330
2A
102
}
330
2A
100
AcDbVisualStyle
  2
Realistic
 70
     8
177
     2
291
     0
 71
     2
176
     1
 72
     2
176
     1
 73
     0
176
     1
 90
        0
176
     1
 40
-0.6
176
     1
 41
-30.0
176
     1
 62
     5
 63
     7
421
 16777215
176
     1
 74
     1
176
     1
 91
        0
176
     1
 64
     7
176
     1
 65
   257
176
     1
 75
     1
176
     1
175
     1
176
     1
 42
1.0
176
     1
 92
        8
176
     1
 66
     8
424
  7895160
176
     1
 43
1.0
176
     1
 76
     1
176
     1
 77
     6
176
     1
 78
     2
176
     1
 67
     7
176
     1
 79
     5
176
     1
170
     0
176
     1
171
     0
176
     1
290
     0
176
     1
 93
       13
176
     1
 44
0.0
176
     1
173
     0
176
     1
  0
VISUALSTYLE
  5
37
102
{ACAD_REACTORS
330
2A
102
}
330
2A
100
AcDbVisualStyle
  2
Thicken
 70
    13
177
     2
291
     1
 71
     2
176
     1
 72
     2
176
     1
 73
     0
176
     1
 90
        0
176
     1
 40
-0.6
176
     1
 41
-30.0
176
     1
 62
     5
 63
     7
421
 16777215
176
     1
 74
     1
176
     1
 91
        4
176
     1
 64
     7
176
     1
 65
   257
176
     1
 75
     1
176
     1
175
     1
176
     1
 42
1.0
176
     1
 92
       12
176
     1
 66
     7
176
     1
 43
1.0
176
     1
 76
     1
176
     1
 77
     6
176
     1
 78
     2
176
     1
 67
     7
176
     1
 79
     5
176
     1
170
     0
176
     1
171
     0
176
     1
290
     0
176
     1
 93
        1
176
     1
 44
0.0
176
     1
173
     0
176
     1
  0
ENDSEC
  0
EOF
